<?xml version="1.0" encoding="UTF-8" standalone="no"?>
<!-- Created with Inkscape (http://www.inkscape.org/) -->

<svg
   xmlns:dc="http://purl.org/dc/elements/1.1/"
   xmlns:cc="http://creativecommons.org/ns#"
   xmlns:rdf="http://www.w3.org/1999/02/22-rdf-syntax-ns#"
   xmlns:svg="http://www.w3.org/2000/svg"
   xmlns="http://www.w3.org/2000/svg"
   xmlns:xlink="http://www.w3.org/1999/xlink"
   xmlns:sodipodi="http://sodipodi.sourceforge.net/DTD/sodipodi-0.dtd"
   xmlns:inkscape="http://www.inkscape.org/namespaces/inkscape"
   width="24"
   height="24"
   id="svg3324"
   version="1.1"
   inkscape:version="0.48.3.1 r9886"
   sodipodi:docname="y-ppa-indicator.svg"
   inkscape:export-filename="/home/andrei/Dropbox/work/y-ppa/y-ppa-manager-stable/share/icons/ubuntu-mono-light/y-ppa-indicator.png"
   inkscape:export-xdpi="129.375"
   inkscape:export-ydpi="129.375">
  <defs
     id="defs3326">
    <linearGradient
       inkscape:collect="always"
       xlink:href="#linearGradient3812"
       id="linearGradient3824"
       x1="32.979576"
       y1="35.313705"
       x2="21.948874"
       y2="24.832056"
       gradientUnits="userSpaceOnUse"
       gradientTransform="matrix(2.7322065,0,0,2.8048886,-1.5729654,-83.317435)" />
    <linearGradient
       id="linearGradient3812">
      <stop
         id="stop3822"
         offset="0"
         style="stop-color:#d3d7cf;stop-opacity:1;" />
      <stop
         style="stop-color:#eeeeec;stop-opacity:1;"
         offset="1"
         id="stop3816" />
    </linearGradient>
    <linearGradient
       inkscape:collect="always"
       xlink:href="#linearGradient3826"
       id="linearGradient3832"
       x1="21.948874"
       y1="24.832056"
       x2="32.979576"
       y2="35.313705"
       gradientUnits="userSpaceOnUse"
       gradientTransform="matrix(2.7322065,0,0,2.8048886,-1.5729654,-83.317435)" />
    <linearGradient
       id="linearGradient3826">
      <stop
         style="stop-color:#2e3436;stop-opacity:0.74336284;"
         offset="0"
         id="stop3828" />
      <stop
         style="stop-color:#2e3436;stop-opacity:1;"
         offset="1"
         id="stop3830" />
    </linearGradient>
  </defs>
  <sodipodi:namedview
     id="base"
     pagecolor="#ffffff"
     bordercolor="#666666"
     borderopacity="1.0"
     inkscape:pageopacity="0.0"
     inkscape:pageshadow="2"
     inkscape:zoom="22.4"
     inkscape:cx="6.6432651"
     inkscape:cy="12.217618"
     inkscape:document-units="px"
     inkscape:current-layer="layer1"
     showgrid="false"
     inkscape:window-width="1255"
     inkscape:window-height="843"
     inkscape:window-x="414"
     inkscape:window-y="82"
     inkscape:window-maximized="0" />
  <metadata
     id="metadata3329">
    <rdf:RDF>
      <cc:Work
         rdf:about="">
        <dc:format>image/svg+xml</dc:format>
        <dc:type
           rdf:resource="http://purl.org/dc/dcmitype/StillImage" />
        <dc:title></dc:title>
      </cc:Work>
    </rdf:RDF>
  </metadata>
  <g
     inkscape:label="Layer 1"
     inkscape:groupmode="layer"
     id="layer1"
     transform="translate(0,-1028.3622)">
    <path
       style="fill:#3c3c3c;fill-opacity:1;fill-rule:nonzero;stroke:none"
       d="m 6.2180989,1032.0051 c -0.9509185,0 -1.7180989,0.758 -1.7180989,1.7331 l 0,12.6677 c 0,0.9752 0.7671804,1.7331 1.7180989,1.7331 l 13.3941591,0 c 0.950915,0 1.718099,-0.7579 1.718099,-1.7331 l 0,-12.6677 c 0,-0.9751 -0.767184,-1.7331 -1.718099,-1.7331 l -13.3941591,0 z m 0.035063,1.2919 13.569476,0 0,13.8651 -13.569476,0 0,-13.8651 z"
       id="rect2871"
       inkscape:connector-curvature="0" />
    <path
       style="fill:#3c3c3c;fill-opacity:1;stroke:#000000;stroke-width:1.08640182;stroke-opacity:0"
       d="m 5.3244508,1032.2715 0,15.2708 15.1144922,0 0,-15.2708 -15.1144922,0 z m 3.8720274,1.4593 c 0.1613491,0 0.3276033,0.06 0.475512,0.1357 0.1546257,0.069 0.2932872,0.1682 0.4075818,0.3054 0.248747,0.3366 0.498829,0.7075 0.781198,1.1538 0.282363,0.4464 0.566759,0.9241 0.84913,1.4253 0.289084,0.4944 0.580204,1.0324 0.849129,1.561 0.275636,0.5219 0.511921,0.9989 0.747233,1.4932 l 2.581351,-4.717 c 0.100844,-0.1785 0.100139,-0.3382 -0.06793,-0.4412 -0.16136,-0.1031 -0.501293,-0.1687 -1.018955,-0.2374 l 0,-0.5771 4.041853,0 0,0.5771 c -0.457175,0.089 -0.810903,0.1751 -1.052919,0.2714 -0.235317,0.097 -0.3814,0.2356 -0.475513,0.4072 l -3.362549,6.21 0,4.242 c -7e-6,0.041 0.04811,0.074 0.101891,0.1357 0.05377,0.056 0.1507,0.135 0.271721,0.2036 0.127729,0.068 0.267092,0.135 0.475512,0.2036 0.215129,0.07 0.499175,0.1419 0.815163,0.2036 l 0,0.543 -5.196667,0 0,-0.543 c 0.611788,-0.1304 1.021401,-0.2768 1.25671,-0.4072 0.242022,-0.1374 0.373612,-0.2432 0.373617,-0.3393 l 0,-4.242 c -0.248755,-0.5561 -0.539876,-1.106 -0.849129,-1.6967 -0.309262,-0.5974 -0.594358,-1.1676 -0.917059,-1.7306 -0.3227072,-0.5632 -0.6417699,-1.1142 -0.9510244,-1.595 -0.3025377,-0.4806 -0.5798606,-0.8581 -0.8151636,-1.1877 -0.060507,-0.076 -0.1298403,-0.1757 -0.2037912,-0.2376 -0.073955,-0.068 -0.1846738,-0.1215 -0.3056864,-0.1696 -0.114292,-0.056 -0.260027,-0.074 -0.4415469,-0.102 -0.1815212,-0.027 -0.3969375,-0.067 -0.6793029,-0.067 l -0.033965,-0.543 c 0.1949665,-0.027 0.3962366,-0.04 0.6113727,-0.067 0.2218578,-0.027 0.4369241,-0.046 0.6453378,-0.067 0.2151343,-0.027 0.3891616,-0.055 0.5774078,-0.067 0.1882419,-0.014 0.368292,-0.034 0.5094773,-0.034 z"
       id="rect2991"
       inkscape:connector-curvature="0" />
    <g
       transform="scale(0.98907668,1.011044)"
       style="font-size:38.42379379px;font-style:normal;font-weight:normal;line-height:125%;letter-spacing:0px;word-spacing:0px;fill:#000000;fill-opacity:1;stroke:none;font-family:Sans"
       id="text2993" />
  </g>
</svg>
