<?xml version="1.0" encoding="UTF-8" standalone="no"?>
<!-- Created with Inkscape (http://www.inkscape.org/) -->

<svg
   xmlns:dc="http://purl.org/dc/elements/1.1/"
   xmlns:cc="http://creativecommons.org/ns#"
   xmlns:rdf="http://www.w3.org/1999/02/22-rdf-syntax-ns#"
   xmlns:svg="http://www.w3.org/2000/svg"
   xmlns="http://www.w3.org/2000/svg"
   xmlns:xlink="http://www.w3.org/1999/xlink"
   xmlns:sodipodi="http://sodipodi.sourceforge.net/DTD/sodipodi-0.dtd"
   xmlns:inkscape="http://www.inkscape.org/namespaces/inkscape"
   width="24"
   height="24"
   id="svg3324"
   version="1.1"
   inkscape:version="0.48.2 r9819"
   sodipodi:docname="glippy-panel.svg">
  <defs
     id="defs3326">
    <linearGradient
       inkscape:collect="always"
       xlink:href="#linearGradient3812"
       id="linearGradient3824"
       x1="32.979576"
       y1="35.313705"
       x2="21.948874"
       y2="24.832056"
       gradientUnits="userSpaceOnUse"
       gradientTransform="matrix(2.7322065,0,0,2.8048886,-1.5729654,-83.317435)" />
    <linearGradient
       id="linearGradient3812">
      <stop
         id="stop3822"
         offset="0"
         style="stop-color:#d3d7cf;stop-opacity:1;" />
      <stop
         style="stop-color:#eeeeec;stop-opacity:1;"
         offset="1"
         id="stop3816" />
    </linearGradient>
    <linearGradient
       inkscape:collect="always"
       xlink:href="#linearGradient3826"
       id="linearGradient3832"
       x1="21.948874"
       y1="24.832056"
       x2="32.979576"
       y2="35.313705"
       gradientUnits="userSpaceOnUse"
       gradientTransform="matrix(2.7322065,0,0,2.8048886,-1.5729654,-83.317435)" />
    <linearGradient
       id="linearGradient3826">
      <stop
         style="stop-color:#2e3436;stop-opacity:0.74336284;"
         offset="0"
         id="stop3828" />
      <stop
         style="stop-color:#2e3436;stop-opacity:1;"
         offset="1"
         id="stop3830" />
    </linearGradient>
  </defs>
  <sodipodi:namedview
     id="base"
     pagecolor="#ffffff"
     bordercolor="#666666"
     borderopacity="1.0"
     inkscape:pageopacity="0.0"
     inkscape:pageshadow="2"
     inkscape:zoom="22.4"
     inkscape:cx="6.6432651"
     inkscape:cy="12.217618"
     inkscape:document-units="px"
     inkscape:current-layer="layer1"
     showgrid="false"
     inkscape:window-width="1255"
     inkscape:window-height="843"
     inkscape:window-x="661"
     inkscape:window-y="117"
     inkscape:window-maximized="0" />
  <metadata
     id="metadata3329">
    <rdf:RDF>
      <cc:Work
         rdf:about="">
        <dc:format>image/svg+xml</dc:format>
        <dc:type
           rdf:resource="http://purl.org/dc/dcmitype/StillImage" />
        <dc:title />
      </cc:Work>
    </rdf:RDF>
  </metadata>
  <g
     inkscape:label="Layer 1"
     inkscape:groupmode="layer"
     id="layer1"
     transform="translate(0,-1028.3622)">
    <path
       style="fill:#3c3c3c;fill-opacity:1;fill-rule:nonzero;stroke:none"
       d="M 6.03125 4 C 5.183747 4 4.5 4.75175 4.5 5.71875 L 4.5 18.28125 C 4.5 19.24835 5.183747 20 6.03125 20 L 17.96875 20 C 18.81625 20 19.5 19.24835 19.5 18.28125 L 19.5 5.71875 C 19.5 4.75175 18.81625 4 17.96875 4 L 6.03125 4 z M 6.0625 5.28125 L 18.15625 5.28125 L 18.15625 19.03125 L 6.0625 19.03125 L 6.0625 5.28125 z "
       transform="translate(0,1028.3622)"
       id="rect2871" />
    <path
       style="fill:#3c3c3c;fill-opacity:1;stroke:#000000;stroke-opacity:0"
       d="m 5.0133928,1033.389 0,14.0625 13.9062512,0 0,-14.0625 -13.9062512,0 z m 3.5625004,1.3438 c 0.148451,0 0.301415,0.055 0.4375,0.125 0.142265,0.064 0.269842,0.1548 0.375,0.2812 0.228862,0.3099 0.458953,0.6515 0.7187498,1.0625 0.259791,0.4111 0.521453,0.851 0.781251,1.3125 0.265975,0.4553 0.533823,0.9507 0.78125,1.4375 0.253603,0.4806 0.470999,0.9198 0.6875,1.375 l 2.375,-4.3437 c 0.09278,-0.1644 0.09213,-0.3114 -0.0625,-0.4063 -0.148461,-0.095 -0.46122,-0.1554 -0.9375,-0.2187 l 0,-0.5313 3.71875,0 0,0.5313 c -0.420629,0.082 -0.74608,0.1614 -0.96875,0.25 -0.216505,0.089 -0.350911,0.217 -0.4375,0.375 l -3.09375,5.7187 0,3.9063 c -6e-6,0.038 0.04426,0.068 0.09375,0.125 0.04947,0.051 0.138653,0.1243 0.25,0.1875 0.117518,0.063 0.245741,0.1243 0.4375,0.1875 0.197931,0.064 0.459271,0.1306 0.75,0.1875 l 0,0.5 -4.7812508,0 0,-0.5 c 0.5628828,-0.1202 0.9397518,-0.2549 1.1562508,-0.375 0.222675,-0.1265 0.343745,-0.224 0.34375,-0.3125 l 0,-3.9063 c -0.22887,-0.5121 -0.496719,-1.0186 -0.78125,-1.5625 -0.28454,-0.5501 -0.5468465,-1.0753 -0.8437508,-1.5937 -0.29691,-0.5186 -0.590467,-1.0261 -0.875,-1.4688 -0.278353,-0.4426 -0.533507,-0.7902 -0.75,-1.0937 -0.05567,-0.07 -0.119461,-0.1618 -0.1875003,-0.2188 -0.068043,-0.063 -0.1699111,-0.1119 -0.28125,-0.1562 -0.1051556,-0.051 -0.2392407,-0.068 -0.40625,-0.094 -0.1670106,-0.025 -0.3652067,-0.062 -0.625,-0.062 l -0.03125,-0.5 c 0.179381,-0.025 0.3645617,-0.037 0.5625,-0.062 0.2041227,-0.025 0.4019967,-0.043 0.59375,-0.062 0.1979366,-0.025 0.3580523,-0.05 0.5312503,-0.062 0.173194,-0.013 0.338851,-0.031 0.46875,-0.031 z"
       id="rect2991"
       inkscape:connector-curvature="0" />
    <g
       transform="scale(0.98907668,1.011044)"
       style="font-size:38.42379379px;font-style:normal;font-weight:normal;line-height:125%;letter-spacing:0px;word-spacing:0px;fill:#000000;fill-opacity:1;stroke:none;font-family:Sans"
       id="text2993" />
  </g>
</svg>
