<?xml version="1.0" encoding="UTF-8" standalone="no"?>
<!-- Created with Inkscape (http://www.inkscape.org/) -->

<svg
   xmlns:dc="http://purl.org/dc/elements/1.1/"
   xmlns:cc="http://creativecommons.org/ns#"
   xmlns:rdf="http://www.w3.org/1999/02/22-rdf-syntax-ns#"
   xmlns:svg="http://www.w3.org/2000/svg"
   xmlns="http://www.w3.org/2000/svg"
   xmlns:xlink="http://www.w3.org/1999/xlink"
   xmlns:sodipodi="http://sodipodi.sourceforge.net/DTD/sodipodi-0.dtd"
   xmlns:inkscape="http://www.inkscape.org/namespaces/inkscape"
   width="22"
   height="22"
   id="svg2"
   sodipodi:version="0.32"
   inkscape:version="0.48.4 r9939"
   version="1.0"
   sodipodi:docname="y-ppa-indicator.svg.2013_10_04_21_31_02.0.svg"
   inkscape:output_extension="org.inkscape.output.svg.inkscape"
   style="display:inline"
   inkscape:export-filename="/home/giovani/icons/pngs/y-ppa-indicator.png"
   inkscape:export-xdpi="90"
   inkscape:export-ydpi="90">
  <defs
     id="defs4">
    <linearGradient
       id="linearGradient3954">
      <stop
         style="stop-color:#000000;stop-opacity:0.23529412;"
         offset="0"
         id="stop3957" />
      <stop
         id="stop3963"
         offset="0.71158868"
         style="stop-color:#000000;stop-opacity:0.39215687;" />
      <stop
         style="stop-color:#000000;stop-opacity:0.54901963;"
         offset="1"
         id="stop3959" />
    </linearGradient>
    <linearGradient
       id="linearGradient4062">
      <stop
         id="stop4064"
         offset="0"
         style="stop-color:#000000;stop-opacity:0.23529412;" />
      <stop
         style="stop-color:#000000;stop-opacity:0.39215687;"
         offset="0.71547633"
         id="stop4066" />
      <stop
         id="stop4068"
         offset="1"
         style="stop-color:#000000;stop-opacity:0.54901963;" />
    </linearGradient>
    <linearGradient
       id="linearGradient3952">
      <stop
         style="stop-color:#000000;stop-opacity:0.23529412;"
         offset="0"
         id="stop3954" />
      <stop
         id="stop3960"
         offset="0.5"
         style="stop-color:#000000;stop-opacity:0.39215687;" />
      <stop
         style="stop-color:#000000;stop-opacity:0.54901963;"
         offset="1"
         id="stop3956" />
    </linearGradient>
    <linearGradient
       id="linearGradient4950">
      <stop
         style="stop-color:#000000;stop-opacity:0.23529412;"
         offset="0"
         id="stop4952" />
      <stop
         id="stop4954"
         offset="0.70607203"
         style="stop-color:#000000;stop-opacity:0.39215687;" />
      <stop
         style="stop-color:#000000;stop-opacity:0.549"
         offset="1"
         id="stop4956" />
    </linearGradient>
    <linearGradient
       id="linearGradient4000">
      <stop
         id="stop4002"
         offset="0"
         style="stop-color:#000000;stop-opacity:0.23529412;" />
      <stop
         style="stop-color:#000000;stop-opacity:0.39215687;"
         offset="0.70607203"
         id="stop4004" />
      <stop
         id="stop4006"
         offset="1"
         style="stop-color:#000000;stop-opacity:0.54901963;" />
    </linearGradient>
    <linearGradient
       id="linearGradient3897">
      <stop
         style="stop-color:#000000;stop-opacity:0.27450982;"
         offset="0"
         id="stop3899" />
      <stop
         id="stop3905"
         offset="0.5"
         style="stop-color:#000000;stop-opacity:0.39215687;" />
      <stop
         style="stop-color:#000000;stop-opacity:0.54901963;"
         offset="1"
         id="stop3901" />
    </linearGradient>
    <linearGradient
       id="linearGradient3295">
      <stop
         style="stop-color:#559829;stop-opacity:1;"
         offset="0"
         id="stop3297" />
      <stop
         style="stop-color:#86c837;stop-opacity:1;"
         offset="1"
         id="stop3299" />
    </linearGradient>
    <linearGradient
       id="linearGradient3287">
      <stop
         style="stop-color:#cd0000;stop-opacity:1;"
         offset="0"
         id="stop3289" />
      <stop
         style="stop-color:#e55300;stop-opacity:1;"
         offset="1"
         id="stop3291" />
    </linearGradient>
    <linearGradient
       id="linearGradient3279">
      <stop
         style="stop-color:#f08e00;stop-opacity:1;"
         offset="0"
         id="stop3281" />
      <stop
         style="stop-color:#ffd200;stop-opacity:1;"
         offset="1"
         id="stop3283" />
    </linearGradient>
    <linearGradient
       id="linearGradient3271">
      <stop
         style="stop-color:#395d93;stop-opacity:1;"
         offset="0"
         id="stop3273" />
      <stop
         style="stop-color:#6e92c7;stop-opacity:1;"
         offset="1"
         id="stop3275" />
    </linearGradient>
    <linearGradient
       inkscape:collect="always"
       id="linearGradient3327">
      <stop
         style="stop-color:#000000;stop-opacity:1;"
         offset="0"
         id="stop3330" />
      <stop
         style="stop-color:#000000;stop-opacity:0;"
         offset="1"
         id="stop3333" />
    </linearGradient>
    <linearGradient
       inkscape:collect="always"
       xlink:href="#linearGradient3327"
       id="linearGradient3335"
       x1="11.375"
       y1="22"
       x2="11.375"
       y2="-9.817296"
       gradientUnits="userSpaceOnUse" />
    <inkscape:perspective
       sodipodi:type="inkscape:persp3d"
       inkscape:vp_x="0 : 11 : 1"
       inkscape:vp_y="0 : 1000 : 0"
       inkscape:vp_z="22 : 11 : 1"
       inkscape:persp3d-origin="11 : 7.3333333 : 1"
       id="perspective102" />
    <linearGradient
       id="linearGradient4081">
      <stop
         style="stop-color:#aaaaaa;stop-opacity:1;"
         offset="0"
         id="stop4083" />
      <stop
         style="stop-color:#f0f0f0;stop-opacity:1;"
         offset="1"
         id="stop4085" />
    </linearGradient>
    <linearGradient
       id="linearGradient4057">
      <stop
         style="stop-color:#816647;stop-opacity:1;"
         offset="0"
         id="stop4059" />
      <stop
         style="stop-color:#a6845d;stop-opacity:1;"
         offset="1"
         id="stop4061" />
    </linearGradient>
    <linearGradient
       id="linearGradient3929">
      <stop
         style="stop-color:#000000;stop-opacity:1;"
         offset="0"
         id="stop3931" />
      <stop
         style="stop-color:#000000;stop-opacity:0;"
         offset="1"
         id="stop3933" />
    </linearGradient>
    <linearGradient
       inkscape:collect="always"
       xlink:href="#linearGradient3929"
       id="linearGradient4051"
       x1="9.494998"
       y1="15.516565"
       x2="9.494998"
       y2="-4.1786065"
       gradientUnits="userSpaceOnUse" />
    <linearGradient
       inkscape:collect="always"
       xlink:href="#linearGradient4057"
       id="linearGradient4063"
       x1="9.17138"
       y1="21.000002"
       x2="9.17138"
       y2="0.97239029"
       gradientUnits="userSpaceOnUse" />
    <linearGradient
       inkscape:collect="always"
       xlink:href="#linearGradient4081"
       id="linearGradient4089"
       x1="6.101758"
       y1="154.58195"
       x2="6.101758"
       y2="36.995476"
       gradientUnits="userSpaceOnUse" />
    <linearGradient
       inkscape:collect="always"
       xlink:href="#linearGradient4081"
       id="linearGradient4103"
       gradientUnits="userSpaceOnUse"
       x1="6.101758"
       y1="154.58195"
       x2="6.101758"
       y2="36.995476" />
    <linearGradient
       inkscape:collect="always"
       xlink:href="#linearGradient4081"
       id="linearGradient4105"
       gradientUnits="userSpaceOnUse"
       x1="6.101758"
       y1="154.58195"
       x2="6.101758"
       y2="36.995476" />
    <linearGradient
       inkscape:collect="always"
       xlink:href="#linearGradient4081"
       id="linearGradient4107"
       gradientUnits="userSpaceOnUse"
       x1="6.101758"
       y1="154.58195"
       x2="6.101758"
       y2="36.995476" />
    <linearGradient
       inkscape:collect="always"
       xlink:href="#linearGradient4081"
       id="linearGradient4109"
       gradientUnits="userSpaceOnUse"
       x1="6.101758"
       y1="154.58195"
       x2="6.101758"
       y2="36.995476" />
    <linearGradient
       inkscape:collect="always"
       xlink:href="#linearGradient4081"
       id="linearGradient4111"
       gradientUnits="userSpaceOnUse"
       x1="6.101758"
       y1="154.58195"
       x2="6.101758"
       y2="36.995476" />
    <linearGradient
       inkscape:collect="always"
       xlink:href="#linearGradient4081"
       id="linearGradient4113"
       gradientUnits="userSpaceOnUse"
       x1="6.101758"
       y1="154.58195"
       x2="6.101758"
       y2="36.995476" />
    <linearGradient
       inkscape:collect="always"
       xlink:href="#linearGradient4081"
       id="linearGradient4115"
       gradientUnits="userSpaceOnUse"
       x1="6.101758"
       y1="154.58195"
       x2="6.101758"
       y2="36.995476" />
    <linearGradient
       inkscape:collect="always"
       xlink:href="#linearGradient4081"
       id="linearGradient4117"
       gradientUnits="userSpaceOnUse"
       x1="6.101758"
       y1="154.58195"
       x2="6.101758"
       y2="36.995476" />
    <linearGradient
       inkscape:collect="always"
       xlink:href="#linearGradient4081"
       id="linearGradient4119"
       gradientUnits="userSpaceOnUse"
       x1="6.101758"
       y1="154.58195"
       x2="6.101758"
       y2="36.995476" />
    <linearGradient
       inkscape:collect="always"
       xlink:href="#linearGradient4081"
       id="linearGradient4121"
       gradientUnits="userSpaceOnUse"
       x1="6.101758"
       y1="154.58195"
       x2="6.101758"
       y2="36.995476" />
    <linearGradient
       inkscape:collect="always"
       xlink:href="#linearGradient4081"
       id="linearGradient4123"
       gradientUnits="userSpaceOnUse"
       x1="6.101758"
       y1="154.58195"
       x2="6.101758"
       y2="36.995476" />
    <linearGradient
       inkscape:collect="always"
       xlink:href="#linearGradient4081"
       id="linearGradient4125"
       gradientUnits="userSpaceOnUse"
       x1="6.101758"
       y1="154.58195"
       x2="6.101758"
       y2="36.995476" />
    <linearGradient
       inkscape:collect="always"
       xlink:href="#linearGradient4081"
       id="linearGradient4127"
       gradientUnits="userSpaceOnUse"
       x1="6.101758"
       y1="154.58195"
       x2="6.101758"
       y2="36.995476" />
    <linearGradient
       inkscape:collect="always"
       xlink:href="#linearGradient4081"
       id="linearGradient4129"
       gradientUnits="userSpaceOnUse"
       x1="6.101758"
       y1="154.58195"
       x2="6.101758"
       y2="36.995476" />
    <linearGradient
       inkscape:collect="always"
       xlink:href="#linearGradient4081"
       id="linearGradient4132"
       gradientUnits="userSpaceOnUse"
       x1="6.101758"
       y1="154.58195"
       x2="6.101758"
       y2="36.995476"
       gradientTransform="matrix(0.1317916,0,0,0.1317916,11.619896,-1.9882468)" />
    <linearGradient
       inkscape:collect="always"
       xlink:href="#linearGradient4081"
       id="linearGradient4141"
       gradientUnits="userSpaceOnUse"
       x1="6.101758"
       y1="154.58195"
       x2="6.101758"
       y2="36.995476"
       gradientTransform="matrix(0.1317916,0,0,0.1317916,11.619896,-1.9882468)" />
    <linearGradient
       inkscape:collect="always"
       xlink:href="#linearGradient4081"
       id="linearGradient4148"
       gradientUnits="userSpaceOnUse"
       x1="6.101758"
       y1="154.58195"
       x2="6.101758"
       y2="36.995476"
       gradientTransform="matrix(0.1317916,0,0,0.1317916,11.619896,-1.9882468)" />
    <linearGradient
       inkscape:collect="always"
       xlink:href="#linearGradient4081"
       id="linearGradient4158"
       gradientUnits="userSpaceOnUse"
       x1="6.101758"
       y1="154.58195"
       x2="6.101758"
       y2="36.995476"
       gradientTransform="matrix(0.1317916,0,0,0.1317916,11.619896,-1.9882468)" />
    <linearGradient
       inkscape:collect="always"
       xlink:href="#linearGradient4081"
       id="linearGradient4180"
       gradientUnits="userSpaceOnUse"
       x1="6.101758"
       y1="154.58195"
       x2="6.101758"
       y2="36.995476" />
    <linearGradient
       inkscape:collect="always"
       xlink:href="#linearGradient4081"
       id="linearGradient4182"
       gradientUnits="userSpaceOnUse"
       gradientTransform="matrix(0.1317916,0,0,0.1317916,11.619896,-1.9882468)"
       x1="6.101758"
       y1="154.58195"
       x2="6.101758"
       y2="36.995476" />
    <linearGradient
       inkscape:collect="always"
       xlink:href="#linearGradient4081"
       id="linearGradient4184"
       gradientUnits="userSpaceOnUse"
       x1="6.101758"
       y1="154.58195"
       x2="6.101758"
       y2="36.995476" />
    <linearGradient
       inkscape:collect="always"
       xlink:href="#linearGradient4081"
       id="linearGradient4186"
       gradientUnits="userSpaceOnUse"
       gradientTransform="matrix(0.1317916,0,0,0.1317916,11.619896,-1.9882468)"
       x1="6.101758"
       y1="154.58195"
       x2="6.101758"
       y2="36.995476" />
    <linearGradient
       inkscape:collect="always"
       xlink:href="#linearGradient4081"
       id="linearGradient2480"
       gradientUnits="userSpaceOnUse"
       gradientTransform="matrix(0.1256322,0,0,0.1256322,11.921746,-1.0005124)"
       x1="6.101758"
       y1="154.58195"
       x2="6.101758"
       y2="36.995476" />
    <linearGradient
       inkscape:collect="always"
       xlink:href="#linearGradient4081"
       id="linearGradient2483"
       gradientUnits="userSpaceOnUse"
       gradientTransform="matrix(0.1256322,0,0,0.1256322,11.921746,-1.0005124)"
       x1="6.101758"
       y1="154.58195"
       x2="6.101758"
       y2="36.995476" />
    <linearGradient
       inkscape:collect="always"
       xlink:href="#linearGradient4081"
       id="linearGradient2489"
       gradientUnits="userSpaceOnUse"
       gradientTransform="matrix(0.1256322,0,0,0.1256322,11.921746,-1.0005124)"
       x1="6.101758"
       y1="154.58195"
       x2="6.101758"
       y2="36.995476" />
    <linearGradient
       inkscape:collect="always"
       xlink:href="#linearGradient4081"
       id="linearGradient2495"
       gradientUnits="userSpaceOnUse"
       gradientTransform="matrix(0.1256322,0,0,0.1256322,11.921746,-1.0005124)"
       x1="6.101758"
       y1="154.58195"
       x2="6.101758"
       y2="36.995476" />
    <linearGradient
       inkscape:collect="always"
       xlink:href="#linearGradient4081"
       id="linearGradient2498"
       gradientUnits="userSpaceOnUse"
       gradientTransform="matrix(0.1256322,0,0,0.1256322,11.921746,-1.0005124)"
       x1="6.101758"
       y1="154.58195"
       x2="6.101758"
       y2="36.995476" />
    <linearGradient
       inkscape:collect="always"
       xlink:href="#linearGradient4081"
       id="linearGradient2501"
       gradientUnits="userSpaceOnUse"
       gradientTransform="matrix(0.1256322,0,0,0.1256322,11.921746,-1.0005124)"
       x1="6.101758"
       y1="154.58195"
       x2="6.101758"
       y2="36.995476" />
    <linearGradient
       inkscape:collect="always"
       xlink:href="#linearGradient4081"
       id="linearGradient2504"
       gradientUnits="userSpaceOnUse"
       gradientTransform="matrix(0.1256322,0,0,0.1256322,11.921746,-1.0005124)"
       x1="6.101758"
       y1="154.58195"
       x2="6.101758"
       y2="36.995476" />
    <linearGradient
       inkscape:collect="always"
       xlink:href="#linearGradient4081"
       id="linearGradient2506"
       gradientUnits="userSpaceOnUse"
       x1="6.101758"
       y1="154.58195"
       x2="6.101758"
       y2="36.995476" />
    <linearGradient
       inkscape:collect="always"
       xlink:href="#linearGradient4081"
       id="linearGradient2508"
       gradientUnits="userSpaceOnUse"
       gradientTransform="matrix(0.1317916,0,0,0.1317916,11.619896,-1.9882468)"
       x1="6.101758"
       y1="154.58195"
       x2="6.101758"
       y2="36.995476" />
    <linearGradient
       inkscape:collect="always"
       xlink:href="#linearGradient4081"
       id="linearGradient2510"
       gradientUnits="userSpaceOnUse"
       gradientTransform="matrix(0.1317916,0,0,0.1317916,11.619896,-1.9882468)"
       x1="6.101758"
       y1="154.58195"
       x2="6.101758"
       y2="36.995476" />
    <clipPath
       clipPathUnits="userSpaceOnUse"
       id="clipPath4974">
      <path
         id="path4976"
         d="M 16.625,2 C 15.93281,2.046173 15.13978,2.350316 14.5,2.875 C 13.716105,3.517873 13.079371,5.1522168 13.25,6.0625 C 13.337976,6.531842 13.692147,7.1029241 14.03125,7.28125 C 14.662734,7.613335 15.813682,7.0624791 16.875,5.9375 C 18.021489,4.722239 18.547995,3.383178 18.15625,2.625 C 17.915497,2.159052 17.31719,1.953827 16.625,2 z M 10.96875,2.71875 C 10.005789,2.719616 9.496306,3.3967078 9.5,4.6875 C 9.502528,5.57142 9.81322,6.3666318 10.21875,6.5625 C 10.520262,6.708131 10.527801,6.6945361 10.90625,6.5625 C 11.533114,6.343793 12.122053,4.8839409 12,3.90625 C 11.900109,3.106091 11.556193,2.7182209 10.96875,2.71875 z M 7.15625,4.03125 C 6.976067,4.0573035 6.795347,4.173262 6.625,4.34375 C 6.281636,4.687396 6.277056,4.8747068 6.28125,5.53125 C 6.286196,6.305553 6.475145,6.7277249 7,7.28125 C 7.392601,7.695296 7.675716,7.7200481 8.03125,7.34375 C 8.416388,6.936117 8.535971,6.296057 8.40625,5.59375 C 8.208416,4.5226825 7.696799,3.9530895 7.15625,4.03125 z M 4.46875,6.375 C 4.281799,6.4054104 4.1133,6.5115553 3.9375,6.6875 C 3.476154,7.14923 3.798831,8.4188978 4.53125,9.0625 C 5.405425,9.830669 6.111327,9.1273309 5.8125,7.78125 C 5.599846,6.8233425 5.029603,6.2837687 4.46875,6.375 z M 12.5,8.0625 C 11.88094,8.0518483 11.187196,8.1034691 10.46875,8.25 C 8.61799,8.627471 7.13709,9.3254488 6.1875,10.28125 C 5.640611,10.831715 5.327697,11.341306 5.0625,12.125 C 4.420581,14.021963 5.609396,16.720678 7.875,18.5625 C 8.719088,19.248703 9.234152,19.555813 10.09375,19.84375 C 10.539486,19.993058 10.892913,20.027742 11.71875,20 C 12.665466,19.968192 12.858002,19.925916 13.46875,19.625 C 14.363786,19.184011 15.378303,18.163965 15.8125,17.28125 C 16.077385,16.74275 16.119821,16.512622 16.09375,16.0625 C 16.049227,15.293922 15.751092,15.084744 14.78125,15.09375 C 13.39673,15.106604 12.815494,15.427682 12.53125,16.40625 C 12.31656,17.145368 12.079212,17.40625 11.59375,17.40625 C 10.824382,17.40625 10.03125,16.794459 10.03125,16.15625 C 10.03125,15.712256 10.746563,15.05048 12.53125,13.84375 C 15.045366,12.14381 15.909739,11.109639 15.78125,9.96875 C 15.64852,8.7901993 14.35718,8.0944552 12.5,8.0625 z"
         style="fill:#ffffff;fill-opacity:1;stroke:none;stroke-width:0.5;stroke-miterlimit:4;stroke-dasharray:none;stroke-opacity:1" />
    </clipPath>
    <clipPath
       clipPathUnits="userSpaceOnUse"
       id="clipPath4995">
      <path
         style="opacity:1;fill:#ffffff;fill-opacity:1;fill-rule:nonzero;stroke:none;stroke-width:1;stroke-linecap:square;stroke-linejoin:miter;stroke-miterlimit:4;stroke-dasharray:none;stroke-dashoffset:0;stroke-opacity:0;display:inline"
         d="M 30,0 L 30,22 L 52,22 L 52,0 L 30,0 z M 46.625,2 C 47.31719,1.953827 47.915497,2.159052 48.15625,2.625 C 48.547995,3.383178 48.021489,4.722239 46.875,5.9375 C 45.813682,7.0624791 44.662734,7.613335 44.03125,7.28125 C 43.692147,7.1029241 43.337976,6.531842 43.25,6.0625 C 43.079371,5.1522168 43.716105,3.517873 44.5,2.875 C 45.13978,2.350316 45.93281,2.046173 46.625,2 z M 40.96875,2.71875 C 41.556193,2.7182209 41.900109,3.106091 42,3.90625 C 42.122053,4.8839409 41.533114,6.343793 40.90625,6.5625 C 40.527801,6.6945361 40.520262,6.708131 40.21875,6.5625 C 39.81322,6.3666318 39.502528,5.57142 39.5,4.6875 C 39.496306,3.3967078 40.005789,2.719616 40.96875,2.71875 z M 37.15625,4.03125 C 37.696799,3.9530895 38.208416,4.5226825 38.40625,5.59375 C 38.535971,6.296057 38.416388,6.936117 38.03125,7.34375 C 37.675716,7.7200481 37.392601,7.695296 37,7.28125 C 36.475145,6.7277249 36.286196,6.305553 36.28125,5.53125 C 36.277056,4.8747068 36.281636,4.687396 36.625,4.34375 C 36.795347,4.173262 36.976067,4.0573035 37.15625,4.03125 z M 34.46875,6.375 C 35.029603,6.2837687 35.599846,6.8233425 35.8125,7.78125 C 36.111327,9.1273309 35.405425,9.830669 34.53125,9.0625 C 33.798831,8.4188978 33.476154,7.14923 33.9375,6.6875 C 34.1133,6.5115553 34.281799,6.4054104 34.46875,6.375 z M 42.5,8.0625 C 44.35718,8.0944552 45.64852,8.7901993 45.78125,9.96875 C 45.909739,11.109639 45.045366,12.14381 42.53125,13.84375 C 40.746563,15.05048 40.03125,15.712256 40.03125,16.15625 C 40.03125,16.794459 40.824382,17.40625 41.59375,17.40625 C 42.079212,17.40625 42.31656,17.145368 42.53125,16.40625 C 42.815494,15.427682 43.39673,15.106604 44.78125,15.09375 C 45.751092,15.084744 46.049227,15.293922 46.09375,16.0625 C 46.119821,16.512622 46.077385,16.74275 45.8125,17.28125 C 45.378303,18.163965 44.363786,19.184011 43.46875,19.625 C 42.858002,19.925916 42.665466,19.968192 41.71875,20 C 40.892913,20.027742 40.539486,19.993058 40.09375,19.84375 C 39.234152,19.555813 38.719088,19.248703 37.875,18.5625 C 35.609396,16.720678 34.420581,14.021963 35.0625,12.125 C 35.327697,11.341306 35.640611,10.831715 36.1875,10.28125 C 37.13709,9.3254488 38.61799,8.627471 40.46875,8.25 C 41.187196,8.1034691 41.88094,8.0518483 42.5,8.0625 z"
         id="path4997" />
    </clipPath>
    <linearGradient
       inkscape:collect="always"
       xlink:href="#linearGradient4081"
       id="linearGradient5065"
       gradientUnits="userSpaceOnUse"
       x1="11.508813"
       y1="6.667244"
       x2="11.508813"
       y2="2.6882501"
       gradientTransform="translate(-30,-30)" />
    <linearGradient
       inkscape:collect="always"
       xlink:href="#linearGradient4081"
       id="linearGradient5068"
       gradientUnits="userSpaceOnUse"
       x1="17.212025"
       y1="7.3808393"
       x2="17.212025"
       y2="1.9877422"
       gradientTransform="translate(-30,-30)" />
    <linearGradient
       inkscape:collect="always"
       xlink:href="#linearGradient4081"
       id="linearGradient5071"
       gradientUnits="userSpaceOnUse"
       x1="7.3737612"
       y1="7.6049061"
       x2="7.3737612"
       y2="4.0347266"
       gradientTransform="translate(-30,-30)" />
    <linearGradient
       inkscape:collect="always"
       xlink:href="#linearGradient4081"
       id="linearGradient5074"
       gradientUnits="userSpaceOnUse"
       x1="4.9496975"
       y1="9.3934212"
       x2="4.9496975"
       y2="6.3640523"
       gradientTransform="translate(-30,-30)" />
    <linearGradient
       inkscape:collect="always"
       xlink:href="#linearGradient4081"
       id="linearGradient5077"
       gradientUnits="userSpaceOnUse"
       x1="13"
       y1="20"
       x2="13"
       y2="7.9960599"
       gradientTransform="translate(-30,-30)" />
    <linearGradient
       inkscape:collect="always"
       xlink:href="#linearGradient4081"
       id="linearGradient3345"
       gradientUnits="userSpaceOnUse"
       x1="6.8391123"
       y1="16.300354"
       x2="6.8391123"
       y2="6.0528178" />
    <linearGradient
       inkscape:collect="always"
       xlink:href="#linearGradient4081"
       id="linearGradient3355"
       gradientUnits="userSpaceOnUse"
       x1="12.316144"
       y1="18.468353"
       x2="12.316144"
       y2="3.4817097" />
    <linearGradient
       inkscape:collect="always"
       xlink:href="#linearGradient4081"
       id="linearGradient3357"
       gradientUnits="userSpaceOnUse"
       x1="18.764908"
       y1="21"
       x2="18.764908"
       y2="0.96705598" />
    <linearGradient
       inkscape:collect="always"
       xlink:href="#linearGradient4081"
       id="linearGradient3522"
       gradientUnits="userSpaceOnUse"
       x1="6.8391123"
       y1="16.300354"
       x2="6.8391123"
       y2="6.0528178"
       gradientTransform="translate(1,0)" />
    <linearGradient
       inkscape:collect="always"
       xlink:href="#linearGradient4081"
       id="linearGradient3527"
       gradientUnits="userSpaceOnUse"
       gradientTransform="translate(1,0)"
       x1="6.8391123"
       y1="16.300354"
       x2="6.8391123"
       y2="6.0528178" />
    <linearGradient
       inkscape:collect="always"
       xlink:href="#linearGradient4081"
       id="linearGradient3540"
       gradientUnits="userSpaceOnUse"
       gradientTransform="translate(1,0)"
       x1="14.524625"
       y1="17.41902"
       x2="14.524625"
       y2="4.625" />
    <linearGradient
       inkscape:collect="always"
       xlink:href="#linearGradient4081"
       id="linearGradient3542"
       gradientUnits="userSpaceOnUse"
       gradientTransform="translate(1,0)"
       x1="10.50519"
       y1="15.28125"
       x2="10.50519"
       y2="6.7458849" />
    <linearGradient
       inkscape:collect="always"
       xlink:href="#linearGradient4081"
       id="linearGradient3552"
       gradientUnits="userSpaceOnUse"
       gradientTransform="translate(1,0)"
       x1="16.5"
       y1="19.542921"
       x2="16.5"
       y2="2.5" />
    <linearGradient
       inkscape:collect="always"
       xlink:href="#linearGradient4081"
       id="linearGradient3680"
       gradientUnits="userSpaceOnUse"
       gradientTransform="translate(1,0)"
       x1="14.524625"
       y1="17.41902"
       x2="14.524625"
       y2="4.625" />
    <inkscape:perspective
       id="perspective2862"
       inkscape:persp3d-origin="0.5 : 0.33333333 : 1"
       inkscape:vp_z="1 : 0.5 : 1"
       inkscape:vp_y="0 : 1000 : 0"
       inkscape:vp_x="0 : 0.5 : 1"
       sodipodi:type="inkscape:persp3d" />
    <linearGradient
       inkscape:collect="always"
       xlink:href="#StandardGradient"
       id="linearGradient3690"
       x1="29"
       y1="3"
       x2="29"
       y2="19.031219"
       gradientUnits="userSpaceOnUse"
       gradientTransform="translate(-20,0)" />
    <inkscape:perspective
       id="perspective4085"
       inkscape:persp3d-origin="0.5 : 0.33333333 : 1"
       inkscape:vp_z="1 : 0.5 : 1"
       inkscape:vp_y="0 : 1000 : 0"
       inkscape:vp_x="0 : 0.5 : 1"
       sodipodi:type="inkscape:persp3d" />
    <linearGradient
       y2="3.5"
       x2="59"
       y1="3.5"
       x1="54"
       gradientTransform="translate(-45,53)"
       gradientUnits="userSpaceOnUse"
       id="linearGradient3829"
       xlink:href="#SpecificGradient"
       inkscape:collect="always" />
    <linearGradient
       id="SpecificGradient"
       x1="10.761708"
       y1="3.9999998"
       x2="10.761708"
       y2="18.011395"
       gradientUnits="userSpaceOnUse">
      <stop
         style="stop-color:#a50000;stop-opacity:1;"
         offset="0"
         id="stop3292" />
      <stop
         style="stop-color:#e73800;stop-opacity:1;"
         offset="1"
         id="stop3294" />
    </linearGradient>
    <linearGradient
       inkscape:collect="always"
       xlink:href="#StandardGradient"
       id="linearGradient3833"
       x1="54"
       y1="3.5"
       x2="59"
       y2="3.5"
       gradientUnits="userSpaceOnUse"
       gradientTransform="translate(-53,53)" />
    <linearGradient
       id="StandardGradient"
       gradientTransform="matrix(0.9984539,0,0,0.9984539,-0.0459776,0.05767558)"
       x1="10.710332"
       y1="1.9963325"
       x2="10.710332"
       y2="18.974037"
       gradientUnits="userSpaceOnUse">
      <stop
         style="stop-color:#000000;stop-opacity:0.86274511;"
         offset="0"
         id="stop3277" />
      <stop
         style="stop-color:#000000;stop-opacity:0.47058824;"
         offset="1"
         id="stop3279" />
    </linearGradient>
    <linearGradient
       inkscape:collect="always"
       xlink:href="#StandardGradient"
       id="linearGradient3726"
       gradientUnits="userSpaceOnUse"
       gradientTransform="translate(-20,1)"
       x1="29"
       y1="3"
       x2="29"
       y2="19.031219" />
    <linearGradient
       inkscape:collect="always"
       xlink:href="#StandardGradient"
       id="linearGradient3730"
       gradientUnits="userSpaceOnUse"
       gradientTransform="translate(-20,0)"
       x1="29"
       y1="3"
       x2="29"
       y2="19.031219" />
    <linearGradient
       inkscape:collect="always"
       xlink:href="#StandardGradient"
       id="linearGradient3735"
       gradientUnits="userSpaceOnUse"
       gradientTransform="translate(-50,0)"
       x1="29"
       y1="3"
       x2="29"
       y2="19.031219" />
    <clipPath
       clipPathUnits="userSpaceOnUse"
       id="clipPath3740">
      <path
         style="fill:#ff00ff;fill-opacity:1;stroke:none;display:inline"
         d="m -30,0 0,22 22,0 0,-22 -22,0 z m 9.96875,3 4.78125,4.71875 -3.21875,3.21875 3.25,3.25 -4.8125,4.8125 0,-6.4375 -2.71875,2.71875 -0.96875,-0.96875 3.3125,-3.3125 -3.28125,-3.3125 0.96875,-1 2.6875,2.71875 0,-6.40625 z m 1.25,3.0625 0,3.34375 L -17.125,7.75 -18.78125,6.0625 z m 0,6.375 0,3.375 1.65625,-1.65625 -1.65625,-1.71875 z"
         id="path3742" />
    </clipPath>
    <linearGradient
       inkscape:collect="always"
       xlink:href="#StandardGradient"
       id="linearGradient3717"
       x1="13"
       y1="3"
       x2="13"
       y2="19.124516"
       gradientUnits="userSpaceOnUse"
       gradientTransform="matrix(0.83333333,0,0,0.83333333,1,2.1666667)" />
    <linearGradient
       inkscape:collect="always"
       xlink:href="#StandardGradient"
       id="linearGradient3723"
       gradientUnits="userSpaceOnUse"
       x1="13"
       y1="3"
       x2="13"
       y2="19.124516"
       gradientTransform="translate(0,1)" />
    <linearGradient
       inkscape:collect="always"
       xlink:href="#StandardGradient"
       id="linearGradient3725"
       gradientUnits="userSpaceOnUse"
       x1="13"
       y1="3"
       x2="13"
       y2="19.124516" />
    <linearGradient
       inkscape:collect="always"
       xlink:href="#StandardGradient"
       id="linearGradient3731"
       gradientUnits="userSpaceOnUse"
       x1="13"
       y1="3"
       x2="13"
       y2="19.124516"
       gradientTransform="translate(0,1)" />
    <linearGradient
       inkscape:collect="always"
       xlink:href="#StandardGradient"
       id="linearGradient3736"
       gradientUnits="userSpaceOnUse"
       x1="13"
       y1="3"
       x2="13"
       y2="19.124516" />
    <linearGradient
       inkscape:collect="always"
       xlink:href="#StandardGradient"
       id="linearGradient3741"
       gradientUnits="userSpaceOnUse"
       x1="13"
       y1="3"
       x2="13"
       y2="19.124516"
       gradientTransform="translate(-31,0)" />
    <clipPath
       clipPathUnits="userSpaceOnUse"
       id="clipPath3748">
      <path
         style="fill:#ff00ff;fill-opacity:1;stroke:none;display:inline"
         d="m -30,0 0,22 22,0 0,-22 -22,0 z m 11,3 c 0.965403,2.3062413 6,6.0715507 6,10 0,3.313708 -2.686292,6 -6,6 -3.313709,0 -6,-2.686292 -6,-6 0,-3.8616134 4.820063,-7.7473922 6,-10 z"
         id="path3750" />
    </clipPath>
    <linearGradient
       inkscape:collect="always"
       xlink:href="#StandardGradient"
       id="linearGradient2945"
       gradientUnits="userSpaceOnUse"
       gradientTransform="matrix(0.83333333,0,0,0.83333333,1,3.1666667)"
       x1="13"
       y1="3"
       x2="13"
       y2="19.124516" />
    <linearGradient
       inkscape:collect="always"
       xlink:href="#StandardGradient"
       id="linearGradient2947"
       gradientUnits="userSpaceOnUse"
       gradientTransform="matrix(0.83333333,0,0,0.83333333,1,2.1666667)"
       x1="13"
       y1="3"
       x2="13"
       y2="19.124516" />
    <linearGradient
       inkscape:collect="always"
       xlink:href="#StandardGradient"
       id="linearGradient3724"
       gradientUnits="userSpaceOnUse"
       gradientTransform="matrix(0.83333333,0,0,0.83333333,1,3.1666667)"
       x1="13"
       y1="3"
       x2="13"
       y2="19.124516" />
    <linearGradient
       inkscape:collect="always"
       xlink:href="#StandardGradient"
       id="linearGradient3728"
       gradientUnits="userSpaceOnUse"
       gradientTransform="matrix(0.83333333,0,0,0.83333333,1,2.1666667)"
       x1="13"
       y1="3"
       x2="13"
       y2="19.124516" />
    <linearGradient
       inkscape:collect="always"
       xlink:href="#StandardGradient"
       id="linearGradient3733"
       gradientUnits="userSpaceOnUse"
       gradientTransform="matrix(0.83333333,0,0,0.83333333,-29,2.1666667)"
       x1="13"
       y1="3"
       x2="13"
       y2="19.124516" />
    <clipPath
       clipPathUnits="userSpaceOnUse"
       id="clipPath3741">
      <path
         style="fill:#ff00ff;fill-opacity:1;stroke:none;display:inline"
         d="m -30,0 0,22 22,0 0,-22 -22,0 z m 11,3 c 0.804503,1.9218677 5,6.726292 5,10 0,2.761423 -2.238577,5 -5,5 -2.761424,0 -5,-2.238577 -5,-5 0,-3.218011 4.016719,-8.1228269 5,-10 z"
         id="path3743" />
    </clipPath>
    <linearGradient
       inkscape:collect="always"
       xlink:href="#StandardGradient"
       id="linearGradient3749"
       x1="11"
       y1="3"
       x2="11"
       y2="19"
       gradientUnits="userSpaceOnUse" />
    <linearGradient
       inkscape:collect="always"
       xlink:href="#StandardGradient"
       id="linearGradient3766"
       gradientUnits="userSpaceOnUse"
       x1="11"
       y1="3"
       x2="11"
       y2="19"
       gradientTransform="translate(0,1)" />
    <linearGradient
       inkscape:collect="always"
       xlink:href="#StandardGradient"
       id="linearGradient3768"
       gradientUnits="userSpaceOnUse"
       x1="11"
       y1="3"
       x2="11"
       y2="19" />
    <linearGradient
       inkscape:collect="always"
       xlink:href="#StandardGradient"
       id="linearGradient3773"
       gradientUnits="userSpaceOnUse"
       x1="11"
       y1="3"
       x2="11"
       y2="19"
       gradientTransform="translate(0,1)" />
    <linearGradient
       inkscape:collect="always"
       xlink:href="#StandardGradient"
       id="linearGradient3777"
       gradientUnits="userSpaceOnUse"
       x1="11"
       y1="3"
       x2="11"
       y2="19" />
    <linearGradient
       inkscape:collect="always"
       xlink:href="#StandardGradient"
       id="linearGradient3782"
       gradientUnits="userSpaceOnUse"
       x1="11"
       y1="3"
       x2="11"
       y2="19"
       gradientTransform="translate(-30,0)" />
    <clipPath
       clipPathUnits="userSpaceOnUse"
       id="clipPath3789">
      <path
         style="fill:#ff00ff;fill-opacity:1;stroke:none;display:inline"
         d="m -30,0 0,22 22,0 0,-22 -22,0 z m 6,3 10,0 c 1.108,0 2,0.892 2,2 l 0,12 c 0,1.108 -0.892,2 -2,2 l -10,0 c -1.108,0 -2,-0.892 -2,-2 l 0,-12 c 0,-1.108 0.892,-2 2,-2 z m 5.21875,3.03125 c -0.775392,9.9e-6 -1.495574,0.1000315 -2.125,0.3125 -0.624873,0.2076585 -1.151326,0.5438025 -1.59375,0.96875 -0.437867,0.4201354 -0.794074,0.925073 -1.03125,1.5625 -0.237178,0.6326119 -0.343751,1.400093 -0.34375,2.25 -1e-6,0.796797 0.133261,1.485293 0.375,2.09375 0.246298,0.608462 0.566694,1.115953 1,1.53125 0.437863,0.41047 0.955871,0.725017 1.5625,0.9375 0.606621,0.207649 1.274781,0.3125 2,0.3125 0.328392,0 0.675478,-0.0287 1.03125,-0.0625 0.355758,-0.0338 0.711288,-0.06705 1.0625,-0.125 0.351196,-0.05795 0.707404,-0.14149 1.03125,-0.21875 0.328391,-0.08209 0.610447,-0.15825 0.875,-0.25 l 0,-3.15625 0.90625,-0.1875 0,-1 -3.96875,0 0,1 1.09375,0.1875 0,2.8125 c -0.218939,0.07727 -0.641714,0.13921 -0.90625,0.1875 -0.26455,0.04346 -0.521274,0.0625 -0.78125,0.0625 -0.237183,0 -0.477018,-0.01421 -0.71875,-0.0625 -0.241744,-0.05312 -0.495261,-0.160523 -0.71875,-0.28125 -0.218937,-0.120725 -0.428877,-0.265928 -0.625,-0.46875 -0.19157,-0.207647 -0.35861,-0.472189 -0.5,-0.78125 -0.141397,-0.309057 -0.2304,-0.67362 -0.3125,-1.09375 -0.0821,-0.420123 -0.125003,-0.908576 -0.125,-1.46875 -3e-6,-0.825762 0.07735,-1.5119819 0.21875,-2.0625 0.145952,-0.5553334 0.329203,-0.9841167 0.59375,-1.3125 0.2691,-0.333196 0.594736,-0.5835278 0.96875,-0.71875 0.374004,-0.140033 0.784761,-0.2187409 1.25,-0.21875 0.241731,9e-6 0.486128,0.019047 0.71875,0.0625 0.23717,0.038641 0.473122,0.110244 0.6875,0.1875 0.218925,0.072444 0.433426,0.1485987 0.625,0.25 0.191557,0.1014186 0.340352,0.2278611 0.5,0.34375 l 0.1875,1.25 0.84375,0 0,-2.125 c -0.25543,-0.077255 -0.749149,-0.240054 -1,-0.3125 -0.250869,-0.077255 -0.52972,-0.160792 -0.8125,-0.21875 -0.282795,-0.057939 -0.577858,-0.091187 -0.90625,-0.125 -0.323844,-0.033793 -0.66569,-0.06249 -1.0625,-0.0625 z"
         id="path3791" />
    </clipPath>
    <linearGradient
       inkscape:collect="always"
       xlink:href="#StandardGradient"
       id="linearGradient5477"
       gradientUnits="userSpaceOnUse"
       x1="11"
       y1="3"
       x2="11"
       y2="19" />
    <linearGradient
       inkscape:collect="always"
       xlink:href="#StandardGradient"
       id="linearGradient5481"
       gradientUnits="userSpaceOnUse"
       x1="11"
       y1="3"
       x2="11"
       y2="19" />
    <radialGradient
       inkscape:collect="always"
       xlink:href="#linearGradient3897"
       id="radialGradient3903"
       cx="-4.9903703"
       cy="6.1412435"
       fx="-4.9903703"
       fy="6.1412435"
       r="6.9952579"
       gradientTransform="matrix(1,0,0,1.1420699,-3.2986214,-4.2556871)"
       gradientUnits="userSpaceOnUse" />
    <radialGradient
       inkscape:collect="always"
       xlink:href="#linearGradient4000"
       id="radialGradient3998"
       gradientUnits="userSpaceOnUse"
       gradientTransform="matrix(2.1412713,0,0,0.86827736,3.6183606,0.96009017)"
       cx="-4.0119686"
       cy="6.9977717"
       fx="-4.0119686"
       fy="6.9977717"
       r="6.9952579" />
    <radialGradient
       inkscape:collect="always"
       xlink:href="#linearGradient4000"
       id="radialGradient3911"
       gradientUnits="userSpaceOnUse"
       gradientTransform="matrix(2.1412713,0,0,0.86827736,3.5862632,0.96009017)"
       cx="-4.0119686"
       cy="6.9977717"
       fx="-4.0119686"
       fy="6.9977717"
       r="6.9952579" />
    <radialGradient
       inkscape:collect="always"
       xlink:href="#linearGradient4000"
       id="radialGradient3936"
       gradientUnits="userSpaceOnUse"
       gradientTransform="matrix(2.1412713,0,0,0.86827736,3.5862632,0.96009017)"
       cx="-4.0119686"
       cy="6.9977717"
       fx="-4.0119686"
       fy="6.9977717"
       r="6.9952579" />
    <radialGradient
       inkscape:collect="always"
       xlink:href="#linearGradient4000"
       id="radialGradient3987"
       gradientUnits="userSpaceOnUse"
       gradientTransform="matrix(2.1461948,0,0,0.86827736,3.6244137,0.96009017)"
       cx="-4.0119686"
       cy="6.9977717"
       fx="-4.0119686"
       fy="6.9977717"
       r="6.9952579" />
    <radialGradient
       inkscape:collect="always"
       xlink:href="#linearGradient4000"
       id="radialGradient3991"
       gradientUnits="userSpaceOnUse"
       gradientTransform="matrix(2.1461948,0,0,0.86827736,-0.3755863,0.96009017)"
       cx="-4.0119686"
       cy="6.9977717"
       fx="-4.0119686"
       fy="6.9977717"
       r="6.9952579" />
    <radialGradient
       inkscape:collect="always"
       xlink:href="#linearGradient4000"
       id="radialGradient4019"
       gradientUnits="userSpaceOnUse"
       gradientTransform="matrix(2.1461948,0,0,0.86827736,-0.3755863,0.96009017)"
       cx="-4.0119686"
       cy="6.9977717"
       fx="-4.0119686"
       fy="6.9977717"
       r="6.9952579" />
    <radialGradient
       inkscape:collect="always"
       xlink:href="#linearGradient4000"
       id="radialGradient4022"
       gradientUnits="userSpaceOnUse"
       gradientTransform="matrix(2.1461948,0,0,0.86827736,3.6244137,0.96009017)"
       cx="-4.0119686"
       cy="6.9977717"
       fx="-4.0119686"
       fy="6.9977717"
       r="6.9952579" />
    <radialGradient
       inkscape:collect="always"
       xlink:href="#linearGradient4000-0"
       id="radialGradient4022-4"
       gradientUnits="userSpaceOnUse"
       gradientTransform="matrix(2.1461948,0,0,0.86827736,3.6244137,0.96009017)"
       cx="-4.0119686"
       cy="6.9977717"
       fx="-4.0119686"
       fy="6.9977717"
       r="6.9952579" />
    <linearGradient
       id="linearGradient4000-0">
      <stop
         id="stop4002-5"
         offset="0"
         style="stop-color:#000000;stop-opacity:0.23529412;" />
      <stop
         style="stop-color:#000000;stop-opacity:0.39215687;"
         offset="0.70607203"
         id="stop4004-7" />
      <stop
         id="stop4006-7"
         offset="1"
         style="stop-color:#000000;stop-opacity:0.54901963;" />
    </linearGradient>
    <radialGradient
       r="6.9952579"
       fy="6.9977717"
       fx="-4.0119686"
       cy="6.9977717"
       cx="-4.0119686"
       gradientTransform="matrix(2.1461948,0,0,0.86827736,-15.668375,13.606331)"
       gradientUnits="userSpaceOnUse"
       id="radialGradient4373"
       xlink:href="#linearGradient4000-0"
       inkscape:collect="always" />
    <radialGradient
       inkscape:collect="always"
       xlink:href="#linearGradient4000-0"
       id="radialGradient4419"
       gradientUnits="userSpaceOnUse"
       gradientTransform="matrix(2.1461948,0,0,0.86827736,-47.668375,13.606331)"
       cx="-4.0119686"
       cy="6.9977717"
       fx="-4.0119686"
       fy="6.9977717"
       r="6.9952579" />
    <radialGradient
       inkscape:collect="always"
       xlink:href="#linearGradient4000"
       id="radialGradient3159"
       gradientUnits="userSpaceOnUse"
       gradientTransform="matrix(2.1412713,0,0,0.86827736,-42.407299,31.970112)"
       cx="-4.0119686"
       cy="6.9977717"
       fx="-4.0119686"
       fy="6.9977717"
       r="6.9952579" />
    <radialGradient
       inkscape:collect="always"
       xlink:href="#linearGradient4000"
       id="radialGradient3166"
       gradientUnits="userSpaceOnUse"
       gradientTransform="matrix(2.1412713,0,0,0.86827736,-42.407299,31.970112)"
       cx="-4.0119686"
       cy="6.9977717"
       fx="-4.0119686"
       fy="6.9977717"
       r="6.9952579" />
    <radialGradient
       inkscape:collect="always"
       xlink:href="#linearGradient4950"
       id="radialGradient4176"
       gradientUnits="userSpaceOnUse"
       gradientTransform="matrix(2.1474586,0,0,1.1584318,20.653075,4.2384941)"
       cx="-3.5557885"
       cy="6.726263"
       fx="-3.5557885"
       fy="6.726263"
       r="6.9952579" />
    <radialGradient
       inkscape:collect="always"
       xlink:href="#linearGradient4950"
       id="radialGradient4960"
       gradientUnits="userSpaceOnUse"
       gradientTransform="matrix(2.1474586,0,0,1.1584318,38.653075,5.2384941)"
       cx="-3.5557885"
       cy="6.726263"
       fx="-3.5557885"
       fy="6.726263"
       r="6.9952579" />
    <radialGradient
       inkscape:collect="always"
       xlink:href="#linearGradient4950"
       id="radialGradient4964"
       gradientUnits="userSpaceOnUse"
       gradientTransform="matrix(2.1474586,0,0,1.1584318,38.653075,4.2384941)"
       cx="-3.5557885"
       cy="6.726263"
       fx="-3.5557885"
       fy="6.726263"
       r="6.9952579" />
    <radialGradient
       inkscape:collect="always"
       xlink:href="#linearGradient4950"
       id="radialGradient4990"
       gradientUnits="userSpaceOnUse"
       gradientTransform="matrix(2.1474586,0,0,1.1584318,38.653075,5.2384941)"
       cx="-3.5557885"
       cy="6.726263"
       fx="-3.5557885"
       fy="6.726263"
       r="6.9952579" />
    <radialGradient
       inkscape:collect="always"
       xlink:href="#linearGradient4950"
       id="radialGradient4993"
       gradientUnits="userSpaceOnUse"
       gradientTransform="matrix(2.1474586,0,0,1.1584318,20.653075,24.238494)"
       cx="-3.5557885"
       cy="6.726263"
       fx="-3.5557885"
       fy="6.726263"
       r="6.9952579" />
    <radialGradient
       inkscape:collect="always"
       xlink:href="#linearGradient4950"
       id="radialGradient4998"
       gradientUnits="userSpaceOnUse"
       gradientTransform="matrix(2.1474586,0,0,1.1584318,20.653075,44.238494)"
       cx="-3.5557885"
       cy="6.726263"
       fx="-3.5557885"
       fy="6.726263"
       r="6.9952579" />
    <radialGradient
       inkscape:collect="always"
       xlink:href="#linearGradient4950"
       id="radialGradient5009"
       gradientUnits="userSpaceOnUse"
       gradientTransform="matrix(2.1474586,0,0,1.1584318,20.653075,4.2384941)"
       cx="-3.5557885"
       cy="6.726263"
       fx="-3.5557885"
       fy="6.726263"
       r="6.9952579" />
    <clipPath
       clipPathUnits="userSpaceOnUse"
       id="clipPath3946">
      <path
         style="font-size:medium;font-style:normal;font-variant:normal;font-weight:normal;font-stretch:normal;text-indent:0;text-align:start;text-decoration:none;line-height:normal;letter-spacing:normal;word-spacing:normal;text-transform:none;direction:ltr;block-progression:tb;writing-mode:lr-tb;text-anchor:start;baseline-shift:baseline;opacity:0.3;color:#000000;fill:#000000;fill-opacity:1;stroke:none;stroke-width:1;marker:none;visibility:visible;display:inline;overflow:visible;enable-background:accumulate;font-family:Sans;-inkscape-font-specification:Sans"
         d="M 24.34375,2.5 C 22.779492,2.5 21.5,3.7794921 21.5,5.34375 l 0,11.3125 c 0,1.564258 1.279492,2.84375 2.84375,2.84375 l 9.34375,0 c 1.564258,0 2.8125,-1.287544 2.8125,-2.84375 l 0,-11.3125 C 36.5,3.7875439 35.251758,2.5 33.6875,2.5 l -9.34375,0 z m 0,1 9.34375,0 C 34.710654,3.5 35.5,4.3125441 35.5,5.34375 l 0,11.3125 C 35.5,17.687456 34.710654,18.5 33.6875,18.5 l -9.34375,0 C 23.320596,18.5 22.5,17.679404 22.5,16.65625 l 0,-11.3125 C 22.5,4.3205959 23.320596,3.5 24.34375,3.5 z m -0.4375,2 A 0.50005,0.50005 0 0 0 23.5,6 l 0,0.40625 a 0.50005,0.50005 0 0 0 0.40625,0.5 l 0.875,0.15625 3.15625,5.1875 0,2.71875 -1.0625,0.125 a 0.50005,0.50005 0 0 0 -0.4375,0.5 l 0,0.40625 a 0.50005,0.50005 0 0 0 0.5,0.5 l 4.40625,0 a 0.50005,0.50005 0 0 0 0.5,-0.5 l 0,-0.40625 a 0.50005,0.50005 0 0 0 -0.4375,-0.5 l -1.09375,-0.125 0,-2.75 2.96875,-5.15625 0.8125,-0.15625 A 0.50005,0.50005 0 0 0 34.5,6.40625 L 34.5,6 A 0.50005,0.50005 0 0 0 34,5.5 l -3.09375,0 a 0.50005,0.50005 0 0 0 -0.5,0.5 l 0,0.40625 a 0.50005,0.50005 0 0 0 0.4375,0.5 l 0.46875,0.0625 -1.8125,3.25 -1.90625,-3.25 0.53125,-0.0625 a 0.50005,0.50005 0 0 0 0.4375,-0.5 L 28.5625,6 a 0.50005,0.50005 0 0 0 -0.5,-0.5 L 24,5.5 a 0.50005,0.50005 0 0 0 -0.09375,0 z m 1.71875,1 0.65625,0 a 0.50005,0.50005 0 0 0 0.0625,0.34375 l 2.71875,4.625 a 0.50005,0.50005 0 0 0 0.375,0.25 L 29.375,11.8125 a 0.50005,0.50005 0 0 0 -0.0625,0.25 l 0,3.34375 a 0.50005,0.50005 0 0 0 0,0.09375 l -0.375,0 a 0.50005,0.50005 0 0 0 0,-0.09375 l 0,-3.3125 a 0.50005,0.50005 0 0 0 -0.0625,-0.25 L 25.625,6.5 z"
         id="path3948"
         inkscape:connector-curvature="0" />
    </clipPath>
    <radialGradient
       inkscape:collect="always"
       xlink:href="#linearGradient3952"
       id="radialGradient3958"
       cx="-86.800507"
       cy="-51.738548"
       fx="-86.800507"
       fy="-51.738548"
       r="7"
       gradientTransform="matrix(1,0,0,1.1428571,70.100436,40.841685)"
       gradientUnits="userSpaceOnUse" />
    <radialGradient
       inkscape:collect="always"
       xlink:href="#linearGradient3952"
       id="radialGradient3966"
       gradientUnits="userSpaceOnUse"
       gradientTransform="matrix(1,0,0,1.1428571,34,7.3912212)"
       cx="-86.800507"
       cy="-51.738548"
       fx="-86.800507"
       fy="-51.738548"
       r="7" />
    <radialGradient
       inkscape:collect="always"
       xlink:href="#linearGradient3952"
       id="radialGradient3968"
       gradientUnits="userSpaceOnUse"
       gradientTransform="matrix(0.99999996,0,0,1.1428571,40.800507,38.129772)"
       cx="-86.800507"
       cy="-51.738548"
       fx="-86.800507"
       fy="-51.738548"
       r="7" />
    <radialGradient
       inkscape:collect="always"
       xlink:href="#linearGradient3952"
       id="radialGradient3171"
       gradientUnits="userSpaceOnUse"
       gradientTransform="matrix(0.99999996,0,0,1.1428571,14.800507,30.129772)"
       cx="-86.800507"
       cy="-51.738548"
       fx="-86.800507"
       fy="-51.738548"
       r="7" />
    <radialGradient
       inkscape:collect="always"
       xlink:href="#linearGradient3952"
       id="radialGradient3178"
       gradientUnits="userSpaceOnUse"
       gradientTransform="matrix(0.99999996,0,0,1.1428571,14.800507,56.129772)"
       cx="-86.800507"
       cy="-51.738548"
       fx="-86.800507"
       fy="-51.738548"
       r="7" />
    <radialGradient
       inkscape:collect="always"
       xlink:href="#linearGradient3952"
       id="radialGradient3953"
       gradientUnits="userSpaceOnUse"
       gradientTransform="matrix(0.99999996,0,0,1.1428571,30.800507,58.129772)"
       cx="-86.800507"
       cy="-51.738548"
       fx="-86.800507"
       fy="-51.738548"
       r="7" />
    <radialGradient
       inkscape:collect="always"
       xlink:href="#linearGradient4062"
       id="radialGradient3964"
       gradientUnits="userSpaceOnUse"
       gradientTransform="matrix(2.1301315,0,0,1.1428571,193.61675,70.129772)"
       cx="-84.783264"
       cy="-50.838703"
       fx="-84.783264"
       fy="-50.838703"
       r="7" />
    <radialGradient
       inkscape:collect="always"
       xlink:href="#linearGradient3952"
       id="radialGradient3981"
       gradientUnits="userSpaceOnUse"
       gradientTransform="matrix(0.99999996,0,0,1.1428571,-3.199493,56.129772)"
       cx="-86.800507"
       cy="-51.738548"
       fx="-86.800507"
       fy="-51.738548"
       r="7" />
    <radialGradient
       inkscape:collect="always"
       xlink:href="#linearGradient3952"
       id="radialGradient4034"
       gradientUnits="userSpaceOnUse"
       gradientTransform="matrix(0.99999996,0,0,1.1428571,-3.199493,56.129772)"
       cx="-86.800507"
       cy="-51.738548"
       fx="-86.800507"
       fy="-51.738548"
       r="7" />
    <clipPath
       clipPathUnits="userSpaceOnUse"
       id="clipPath4058">
      <path
         style="font-size:medium;font-style:normal;font-variant:normal;font-weight:normal;font-stretch:normal;text-indent:0;text-align:start;text-decoration:none;line-height:normal;letter-spacing:normal;word-spacing:normal;text-transform:none;direction:ltr;block-progression:tb;writing-mode:lr-tb;text-anchor:start;baseline-shift:baseline;opacity:0.3;color:#000000;fill:#ffffff;fill-opacity:1;stroke:none;stroke-width:1;marker:none;visibility:visible;display:inline;overflow:visible;enable-background:accumulate;font-family:Sans;-inkscape-font-specification:Sans"
         d="m -92.65625,-11.5 c -1.564258,0 -2.84375,1.279492 -2.84375,2.84375 l 0,11.3125 c 0,1.5642579 1.279492,2.84375 2.84375,2.84375 l 9.3125,0 C -81.779492,5.5 -80.5,4.2205079 -80.5,2.65625 l 0,-11.3125 c 0,-1.564258 -1.279492,-2.84375 -2.84375,-2.84375 l -9.3125,0 z m 0,1 9.3125,0 c 1.023154,0 1.84375,0.8205959 1.84375,1.84375 l 0,11.3125 C -81.5,3.6794041 -82.320596,4.5 -83.34375,4.5 l -9.3125,0 C -93.679404,4.5 -94.5,3.6794041 -94.5,2.65625 l 0,-11.3125 c 0,-1.0231541 0.820596,-1.84375 1.84375,-1.84375 z m -0.4375,2 A 0.50005,0.50005 0 0 0 -93.5,-8 l 0,0.53125 a 0.50005,0.50005 0 0 0 0.40625,0.5 l 0.84375,0.15625 2.71875,5.03125 0,2.59375 -1.0625,0.15625 a 0.50005,0.50005 0 0 0 -0.4375,0.5 l 0,0.53125 a 0.50005,0.50005 0 0 0 0.5,0.5 l 5.28125,0 a 0.50005,0.50005 0 0 0 0.5,-0.5 l 0,-0.53125 a 0.50005,0.50005 0 0 0 -0.4375,-0.5 l -1.09375,-0.15625 0,-2.65625 2.59375,-4.96875 0.78125,-0.15625 a 0.50005,0.50005 0 0 0 0.40625,-0.5 L -82.5,-8 A 0.50005,0.50005 0 0 0 -83,-8.5 l -3.25,0 a 0.50005,0.50005 0 0 0 -0.5,0.5 l 0,0.53125 a 0.50005,0.50005 0 0 0 0.40625,0.5 l 0.5,0.09375 -1.34375,2.75 -1.4375,-2.75 0.625,-0.09375 a 0.50005,0.50005 0 0 0 0.40625,-0.5 l 0,-0.53125 a 0.50005,0.50005 0 0 0 -0.5,-0.5 L -93,-8.5 a 0.50005,0.50005 0 0 0 -0.09375,0 z m 1.59375,1 1.6875,0 a 0.50005,0.50005 0 0 0 0,0.46875 l 2.1875,4.1875 a 0.50005,0.50005 0 0 0 0.625,0.25 l -0.21875,0.4375 a 0.50005,0.50005 0 0 0 -0.0625,0.21875 l 0,3.1875 a 0.50005,0.50005 0 0 0 0.0625,0.25 l -1.375,0 a 0.50005,0.50005 0 0 0 0.0625,-0.25 l 0,-3.15625 a 0.50005,0.50005 0 0 0 -0.0625,-0.25 L -91.5,-7.5 z m 6.84375,0 0.21875,0 a 0.50005,0.50005 0 0 0 0,0.03125 l -0.15625,0.3125 A 0.50005,0.50005 0 0 0 -84.65625,-7.5 z"
         id="path4060"
         inkscape:connector-curvature="0" />
    </clipPath>
    <radialGradient
       inkscape:collect="always"
       xlink:href="#linearGradient4062"
       id="radialGradient3184"
       gradientUnits="userSpaceOnUse"
       gradientTransform="matrix(2.1301315,0,0,1.1428571,223.61675,70.129772)"
       cx="-84.783264"
       cy="-50.838703"
       fx="-84.783264"
       fy="-50.838703"
       r="7" />
    <radialGradient
       inkscape:collect="always"
       xlink:href="#linearGradient3954"
       id="radialGradient3961"
       cx="13.017233"
       cy="11.799862"
       fx="13.017233"
       fy="11.799862"
       r="7"
       gradientTransform="matrix(2.1471733,0,0,1.4326277,-14.933023,-4.8764144)"
       gradientUnits="userSpaceOnUse" />
    <radialGradient
       inkscape:collect="always"
       xlink:href="#linearGradient3954"
       id="radialGradient3967"
       gradientUnits="userSpaceOnUse"
       gradientTransform="matrix(2.1471733,0,0,1.4326277,-14.933023,-34.876414)"
       cx="13.017233"
       cy="11.799862"
       fx="13.017233"
       fy="11.799862"
       r="7" />
    <radialGradient
       inkscape:collect="always"
       xlink:href="#linearGradient3954"
       id="radialGradient3979"
       gradientUnits="userSpaceOnUse"
       gradientTransform="matrix(2.1471733,0,0,1.4326277,1.066977,-34.876414)"
       cx="13.017233"
       cy="11.799862"
       fx="13.017233"
       fy="11.799862"
       r="7" />
    <radialGradient
       inkscape:collect="always"
       xlink:href="#linearGradient3954"
       id="radialGradient3982"
       gradientUnits="userSpaceOnUse"
       gradientTransform="matrix(2.4539123,0,0,1.4326277,-18.637741,-4.8764144)"
       cx="13.017233"
       cy="11.799862"
       fx="13.017233"
       fy="11.799862"
       r="7" />
    <radialGradient
       inkscape:collect="always"
       xlink:href="#linearGradient3954"
       id="radialGradient3990"
       gradientUnits="userSpaceOnUse"
       gradientTransform="matrix(2.4539123,0,0,1.4326277,-44.637741,-52.876414)"
       cx="13.017233"
       cy="11.799862"
       fx="13.017233"
       fy="11.799862"
       r="7" />
    <radialGradient
       inkscape:collect="always"
       xlink:href="#linearGradient3954"
       id="radialGradient4013"
       gradientUnits="userSpaceOnUse"
       gradientTransform="matrix(2.1471733,0,0,1.2734468,-14.933023,-2.1123684)"
       cx="13.017233"
       cy="11.799862"
       fx="13.017233"
       fy="11.799862"
       r="7" />
    <radialGradient
       inkscape:collect="always"
       xlink:href="#linearGradient3954"
       id="radialGradient4021"
       gradientUnits="userSpaceOnUse"
       gradientTransform="matrix(2.1471733,0,0,1.2734468,-14.933023,-2.112368)"
       cx="13.017233"
       cy="11.799862"
       fx="13.017233"
       fy="11.799862"
       r="7" />
    <radialGradient
       inkscape:collect="always"
       xlink:href="#linearGradient3954"
       id="radialGradient4026"
       gradientUnits="userSpaceOnUse"
       gradientTransform="matrix(2.1471733,0,0,1.2734468,-14.933023,-2.1123684)"
       cx="13.017233"
       cy="11.799862"
       fx="13.017233"
       fy="11.799862"
       r="7" />
    <radialGradient
       inkscape:collect="always"
       xlink:href="#linearGradient3954"
       id="radialGradient4030"
       gradientUnits="userSpaceOnUse"
       gradientTransform="matrix(2.1471733,0,0,1.2734468,-14.933023,-1.1123684)"
       cx="13.017233"
       cy="11.799862"
       fx="13.017233"
       fy="11.799862"
       r="7" />
    <radialGradient
       inkscape:collect="always"
       xlink:href="#linearGradient3954"
       id="radialGradient4032"
       gradientUnits="userSpaceOnUse"
       gradientTransform="matrix(2.1471733,0,0,1.2734468,-14.933023,-2.1123684)"
       cx="13.017233"
       cy="11.799862"
       fx="13.017233"
       fy="11.799862"
       r="7" />
    <radialGradient
       inkscape:collect="always"
       xlink:href="#linearGradient3954"
       id="radialGradient4037"
       gradientUnits="userSpaceOnUse"
       gradientTransform="matrix(2.1471733,0,0,1.2734468,-14.933023,-2.1123684)"
       cx="13.017233"
       cy="11.799862"
       fx="13.017233"
       fy="11.799862"
       r="7" />
    <radialGradient
       inkscape:collect="always"
       xlink:href="#linearGradient3954"
       id="radialGradient4041"
       gradientUnits="userSpaceOnUse"
       gradientTransform="matrix(2.1471733,0,0,1.2734468,-14.933023,-1.1123684)"
       cx="13.017233"
       cy="11.799862"
       fx="13.017233"
       fy="11.799862"
       r="7" />
    <radialGradient
       inkscape:collect="always"
       xlink:href="#linearGradient3954"
       id="radialGradient4044"
       gradientUnits="userSpaceOnUse"
       gradientTransform="matrix(2.1471733,0,0,1.2734468,-14.933023,-1.1123684)"
       cx="13.017233"
       cy="11.799862"
       fx="13.017233"
       fy="11.799862"
       r="7" />
    <radialGradient
       inkscape:collect="always"
       xlink:href="#linearGradient3954"
       id="radialGradient3215"
       gradientUnits="userSpaceOnUse"
       gradientTransform="matrix(2.1471733,0,0,1.2734468,-32.933023,-2.112368)"
       cx="13.017233"
       cy="11.799862"
       fx="13.017233"
       fy="11.799862"
       r="7" />
    <radialGradient
       inkscape:collect="always"
       xlink:href="#linearGradient3954"
       id="radialGradient3219"
       gradientUnits="userSpaceOnUse"
       gradientTransform="matrix(2.1471733,0,0,1.2734468,-14.933023,-3.112368)"
       cx="13.017233"
       cy="11.799862"
       fx="13.017233"
       fy="11.799862"
       r="7" />
    <radialGradient
       inkscape:collect="always"
       xlink:href="#linearGradient3954"
       id="radialGradient3221"
       gradientUnits="userSpaceOnUse"
       gradientTransform="matrix(2.1471733,0,0,1.2734468,-14.933023,-2.112368)"
       cx="13.017233"
       cy="11.799862"
       fx="13.017233"
       fy="11.799862"
       r="7" />
    <radialGradient
       inkscape:collect="always"
       xlink:href="#linearGradient3954"
       id="radialGradient3994"
       gradientUnits="userSpaceOnUse"
       gradientTransform="matrix(2.1471733,0,0,1.2734468,-32.933023,-3.112368)"
       cx="13.017233"
       cy="11.799862"
       fx="13.017233"
       fy="11.799862"
       r="7" />
    <radialGradient
       inkscape:collect="always"
       xlink:href="#linearGradient3954"
       id="radialGradient4023"
       gradientUnits="userSpaceOnUse"
       gradientTransform="matrix(2.1471733,0,0,1.2734468,-14.933023,-3.112368)"
       cx="13.017233"
       cy="11.799862"
       fx="13.017233"
       fy="11.799862"
       r="7" />
    <clipPath
       clipPathUnits="userSpaceOnUse"
       id="clipPath4035">
      <path
         style="font-size:medium;font-style:normal;font-variant:normal;font-weight:normal;font-stretch:normal;text-indent:0;text-align:start;text-decoration:none;line-height:normal;letter-spacing:normal;word-spacing:normal;text-transform:none;direction:ltr;block-progression:tb;writing-mode:lr-tb;text-anchor:start;baseline-shift:baseline;color:#000000;fill:#000000;fill-opacity:1;stroke:none;stroke-width:1;marker:none;visibility:visible;display:inline;overflow:visible;enable-background:accumulate;font-family:Sans;-inkscape-font-specification:Sans"
         d="m -12.25,2.5 c -1.24067,0 -2.25,1.0309582 -2.25,2.28125 l 0,12.4375 c 0,1.250292 1.00933,2.28125 2.25,2.28125 l 10.5,0 c 1.24067012,0 2.25,-1.030958 2.25,-2.28125 l 0,-12.4375 C 0.5,3.5309582 -0.50932985,2.5 -1.75,2.5 l -10.5,0 z m 0,1 10.5,0 c 0.6909758,0 1.25,0.561764 1.25,1.28125 l 0,12.4375 C -0.5,17.938236 -1.0590241,18.5 -1.75,18.5 l -10.5,0 c -0.690976,0 -1.25,-0.561764 -1.25,-1.28125 l 0,-12.4375 C -13.5,4.061764 -12.940976,3.5 -12.25,3.5 z m 2.0625,2 c -0.200087,0.018032 -0.395271,0.045141 -0.5625,0.0625 -0.182874,0.019002 -0.376477,0.035046 -0.59375,0.0625 -0.185245,0.024058 -0.339027,0.04118 -0.5,0.0625 l -0.21875,0.03125 a 0.50005,0.50005 0 0 0 -0.4375,0.5 l 0,0.21875 a 0.50005,0.50005 0 0 0 0,0.03125 l 0.03125,0.5625 a 0.50005,0.50005 0 0 0 0,0.03125 l 0.03125,0.25 a 0.50005,0.50005 0 0 0 0.5,0.4375 l 0.21875,0 c 0.188374,7.2e-6 0.35096,0.018465 0.4375,0.03125 0.139217,0.015441 0.176512,0.010916 0.15625,0 -0.0041,-0.00218 0.04381,0.00426 0.03125,0 0.0068,0.00571 -0.0065,0.025941 0,0.03125 0.02311,0.02981 0.06968,0.062774 0.09375,0.09375 0.16364,0.2105438 0.344811,0.441954 0.53125,0.71875 0.20609,0.3059882 0.379526,0.6523866 0.625,1.0625 0.2318692,0.382563 0.4883987,0.832011 0.71875,1.25 0.1958201,0.355349 0.3822563,0.640902 0.53125,0.9375 l 0,2.4375 c -0.0446,0.01652 -0.068358,0.04495 -0.125,0.0625 -0.1743146,0.05582 -0.2859884,0.09288 -0.4375,0.125 -0.010056,0.0021 -0.020859,-0.002 -0.03125,0 l -0.1875,0.03125 a 0.50005,0.50005 0 0 0 -0.4375,0.5 l 0,0.1875 0,0.53125 0,0.25 a 0.50005,0.50005 0 0 0 0.5,0.5 l 0.25,0 4.40625,0 0.25,0 a 0.50005,0.50005 0 0 0 0.5,-0.5 l 0,-0.25 0,-0.53125 0,-0.1875 a 0.50005,0.50005 0 0 0 -0.4375,-0.5 L -4.53125,14.5 c -0.010808,-0.002 -0.020505,0.0021 -0.03125,0 -0.1820407,-0.03589 -0.3508102,-0.07877 -0.5,-0.125 -0.059243,-0.01897 -0.058129,-0.01699 -0.09375,-0.03125 l 0,-2.3125 L -2.75,7.75 c 0.076585,-0.031211 0.2914944,-0.098405 0.59375,-0.15625 l 0.03125,0 0.1875,-0.03125 a 0.50005,0.50005 0 0 0 0.4375,-0.5 l 0,-0.1875 0,-0.5625 0,-0.25 a 0.50005,0.50005 0 0 0 -0.5,-0.5 l -0.25,0 -3.25,0 -0.25,0 a 0.50005,0.50005 0 0 0 -0.5,0.5 l 0,0.25 0,0.5625 0,0.21875 a 0.50005,0.50005 0 0 0 0.4375,0.5 L -5.65625,7.625 -6.4375,9.0625 C -6.6394584,8.700471 -6.8463679,8.3982418 -7.03125,8.09375 -7.2501049,7.7245459 -7.4968616,7.3640075 -7.71875,7.03125 -7.9272754,6.7107415 -8.0951532,6.4071789 -8.3125,6.125 a 0.50005,0.50005 0 0 0 -0.03125,0 C -8.5166175,5.9101109 -8.7346713,5.7342602 -9,5.625 -9.2572679,5.5190955 -9.499022,5.5000127 -9.6875,5.5 c -0.021424,1.9e-6 -0.2467052,-0.022108 -0.5,0 z m 0.0625,1 c 0.1423692,-0.012426 0.2841602,1.33e-5 0.4375,0 0.108168,7.3e-6 0.2011979,0.016682 0.3125,0.0625 0.1084443,0.044657 0.1897174,0.1186802 0.25,0.1875 0.1759092,0.2283809 0.3804394,0.5158867 0.59375,0.84375 0.2180296,0.3269705 0.4206089,0.6551961 0.625,1 0.2224237,0.3663209 0.4607229,0.7277222 0.65625,1.09375 0.1158368,0.2086628 0.2249822,0.419619 0.34375,0.65625 a 0.50005,0.50005 0 0 0 0.875,0.03125 L -4.4375,7.53125 A 0.50005,0.50005 0 0 0 -4.65625,6.84375 C -4.7945778,6.7736155 -5.0165421,6.7295942 -5.25,6.6875 l 0,-0.125 2.75,0 0,0.09375 c -0.2462082,0.053685 -0.4821781,0.098046 -0.625,0.15625 -0.2202119,0.089758 -0.4054487,0.2440358 -0.5,0.40625 l -2.46875,4.4375 a 0.50005,0.50005 0 0 0 -0.0625,0.25 l 0,2.71875 a 0.50005,0.50005 0 0 0 0.125,0.34375 c 0.075763,0.08319 0.1794379,0.149834 0.25,0.1875 0.073469,0.03921 0.2107403,0.09365 0.40625,0.15625 0.1085581,0.03364 0.2960128,0.08291 0.46875,0.125 l 0,0.0625 -3.90625,0 0,-0.0625 c 0.1492224,-0.04181 0.312981,-0.09513 0.40625,-0.125 0.1270668,-0.03938 0.1805683,-0.06637 0.25,-0.09375 0.021884,-0.0033 0.066898,-0.02285 0.09375,-0.03125 0.00806,-0.0025 0.019896,0.0047 0.03125,0 a 0.50005,0.50005 0 0 0 0.03125,0 c 2.007e-4,-7.6e-5 0.013628,-0.02235 0.03125,-0.03125 0.028196,-0.01424 0.062215,-0.03106 0.0625,-0.03125 0.128269,-0.08323 0.1781217,-0.145954 0.1875,-0.15625 a 0.50005,0.50005 0 0 0 0.125,-0.34375 l 0,-2.75 c -4.75e-4,0.0029 -0.00179,-0.02214 0,-0.0625 8.954e-4,-0.02018 0.00513,-0.02469 0,-0.0625 -0.00301,-0.02216 -0.020252,-0.06031 -0.03125,-0.09375 a 0.50005,0.50005 0 0 0 -0.03125,-0.0625 c -0.00194,-0.0056 8.19e-5,-0.03107 0,-0.03125 -0.1875687,-0.394498 -0.3843087,-0.744933 -0.59375,-1.125 -0.2352487,-0.426875 -0.4767732,-0.8507607 -0.71875,-1.25 -0.2305704,-0.3852146 -0.4426817,-0.7615102 -0.6875,-1.125 -0.2393433,-0.3553393 -0.450587,-0.6499874 -0.625,-0.875 a 0.50005,0.50005 0 0 0 -0.03125,0 c -0.164224,-0.1918824 -0.120841,-0.1222208 -0.125,-0.125 -0.0042,-0.00278 -0.03439,-0.00694 -0.0625,-0.03125 0.03915,0.033837 -0.03318,-0.103369 -0.28125,-0.1875 -0.213575,-0.072395 -0.289271,-0.052991 -0.375,-0.0625 C -11.23964,6.76893 -11.359728,6.756402 -11.46875,6.75 L -11.5,6.65625 c 0.0904,-0.011029 0.171788,-0.017034 0.28125,-0.03125 0.190883,-0.02412 0.397798,-0.04214 0.59375,-0.0625 0.201999,-0.020969 0.344759,-0.04851 0.5,-0.0625 z"
         id="path4038"
         inkscape:connector-curvature="0" />
    </clipPath>
    <radialGradient
       inkscape:collect="always"
       xlink:href="#linearGradient3954"
       id="radialGradient4042"
       gradientUnits="userSpaceOnUse"
       gradientTransform="matrix(2.1471733,0,0,1.2734468,-32.933023,-3.112368)"
       cx="13.017233"
       cy="11.799862"
       fx="13.017233"
       fy="11.799862"
       r="7" />
  </defs>
  <sodipodi:namedview
     id="base"
     pagecolor="#484848"
     bordercolor="#e7e7e7"
     borderopacity="1"
     inkscape:pageopacity="0.76862745"
     inkscape:pageshadow="2"
     inkscape:zoom="10.289025"
     inkscape:cx="-6.5406615"
     inkscape:cy="10.328243"
     inkscape:document-units="px"
     inkscape:current-layer="layer1"
     showgrid="true"
     inkscape:showpageshadow="false"
     showguides="true"
     inkscape:guide-bbox="true"
     inkscape:window-width="1301"
     inkscape:window-height="744"
     inkscape:window-x="65"
     inkscape:window-y="24"
     inkscape:window-maximized="1"
     inkscape:snap-global="false">
    <sodipodi:guide
       orientation="1,0"
       position="0,112"
       id="guide2383" />
    <sodipodi:guide
       orientation="0,1"
       position="26.278146,128"
       id="guide2385" />
    <sodipodi:guide
       orientation="1,0"
       position="128,54.082119"
       id="guide2387" />
    <sodipodi:guide
       orientation="0,1"
       position="16.389608,-0.5593723"
       id="guide2389" />
    <sodipodi:guide
       orientation="0,1"
       position="60.863576,64.084768"
       id="guide2391" />
    <inkscape:grid
       type="xygrid"
       id="grid3672"
       visible="true"
       enabled="true"
       empspacing="5"
       snapvisiblegridlinesonly="true" />
  </sodipodi:namedview>
  <metadata
     id="metadata7">
    <rdf:RDF>
      <cc:Work
         rdf:about="">
        <dc:format>image/svg+xml</dc:format>
        <dc:type
           rdf:resource="http://purl.org/dc/dcmitype/StillImage" />
        <dc:title />
      </cc:Work>
    </rdf:RDF>
  </metadata>
  <g
     inkscape:label="Icon"
     inkscape:groupmode="layer"
     id="layer1"
     style="display:inline">
    <path
       style="opacity:0.05;fill:#ffffff;fill-opacity:1;stroke:none"
       d="M 36.34375,2 C 34.50894,2 33,3.50894 33,5.34375 l 0,11.3125 C 33,18.49106 34.50894,20 36.34375,20 l 9.3125,0 C 47.49106,20 49,18.49106 49,16.65625 L 49,5.34375 C 49,3.50894 47.49106,2 45.65625,2 z m 0,1 9.3125,0 C 46.949956,3 48,4.050044 48,5.34375 l 0,11.3125 C 48,17.949956 46.949956,19 45.65625,19 l -9.3125,0 C 35.050044,19 34,17.949956 34,16.65625 L 34,5.34375 C 34,4.050044 35.050044,3 36.34375,3 z M 36,6 36,6.53125 37.0625,6.75 l 2.90625,5.34375 0,3.15625 -1.5,0.21875 0,0.53125 5.28125,0 0,-0.53125 -1.53125,-0.21875 0,-3.1875 L 45,6.75 46,6.53125 46,6 42.75,6 42.75,6.53125 43.90625,6.75 41.8125,10.9375 39.625,6.75 40.90625,6.53125 40.90625,6 z m 5.84375,0.90625 C 41.72512,7.1973178 41.461486,7.4250018 41.15625,7.5 l 0.625,1.25 0.625,-1.28125 C 42.152634,7.3685152 41.943985,7.1598663 41.84375,6.90625 z M 38.34375,7 38.65625,7 C 38.67866,7.076298 38.7102,7.1499065 38.75,7.21875 l 2.1875,4.1875 c 0.07123,0.148138 0.179635,0.278224 0.3125,0.375 -0.02366,0.09164 -0.03421,0.186652 -0.03125,0.28125 l 0,2.9375 -0.25,0 0,-2.90625 c -0.0026,-0.163319 -0.04589,-0.325846 -0.125,-0.46875 z"
       id="path3176"
       inkscape:connector-curvature="0"
       sodipodi:nodetypes="sssssssssssssssssscccccccccccccccccccccccccccccccccccccc" />
    <path
       style="opacity:0.2;fill:#ffffff;fill-opacity:1;stroke:none"
       d="M 36,6 36,6.53125 37.0625,6.75 37.1875,7 39.75,7 39.625,6.75 40.90625,6.53125 40.90625,6 36,6 z m 6.75,0 0,0.53125 L 43.90625,6.75 43.78125,7 44.875,7 45,6.75 46,6.53125 46,6 42.75,6 z M 40.09375,7.65625 39.625,7.75 41.8125,11.9375 43.90625,7.75 43.4375,7.65625 41.8125,10.9375 40.09375,7.65625 z m -0.125,7.59375 -1.5,0.21875 0,0.53125 1.5,0 0,-0.75 z m 2.25,0 0,0.75 1.53125,0 0,-0.53125 L 42.21875,15.25 z M 34,16.65625 l 0,1 C 34,18.949956 35.050044,20 36.34375,20 l 9.3125,0 C 46.949956,20 48,18.949956 48,17.65625 l 0,-1 C 48,17.949956 46.949956,19 45.65625,19 l -9.3125,0 C 35.050044,19 34,17.949956 34,16.65625 z"
       id="path3174"
       inkscape:connector-curvature="0" />
    <path
       style="font-size:medium;font-style:normal;font-variant:normal;font-weight:normal;font-stretch:normal;text-indent:0;text-align:start;text-decoration:none;line-height:normal;letter-spacing:normal;word-spacing:normal;text-transform:none;direction:ltr;block-progression:tb;writing-mode:lr-tb;text-anchor:start;baseline-shift:baseline;opacity:0.05;color:#000000;fill:#ffffff;fill-opacity:1;stroke:none;stroke-width:2;marker:none;visibility:visible;display:inline;overflow:visible;enable-background:accumulate;font-family:Sans;-inkscape-font-specification:Sans"
       d="M 6.3438,42 C 4.5089,42 3,43.50894 3,45.34375 l 0,11.3125 C 3,58.49106 4.5089,60 6.3438,60 l 9.3437,0 C 17.5223,60 19,58.474956 19,56.65625 l 0,-11.3125 C 19,43.525044 17.5223,42 15.6875,42 z m 0,1 9.3437,0 C 16.9812,43 18,44.050044 18,45.34375 l 0,11.3125 C 18,57.949956 16.9812,59 15.6875,59 L 6.3438,59 C 5.05,59 4,57.949956 4,56.65625 L 4,45.34375 C 4,44.050044 5.05,43 6.3438,43 z M 6,46 l 0,0.40625 1.0938,0.1875 3.3437,5.5 0,3.3125 -1.5,0.1875 0,0.40625 4.4063,0 0,-0.40625 -1.5313,-0.1875 0,-3.34375 3.1563,-5.46875 L 16,46.40625 16,46 l -3.0937,0 0,0.40625 1.2187,0.1875 -2.625,4.625 -2.7187,-4.625 1.2812,-0.1875 0,-0.40625 z"
       id="path4187"
       inkscape:connector-curvature="0"
       sodipodi:nodetypes="sssssssssssssssssscccccccccccccccccccccc"
       inkscape:export-filename="/home/giovani/icons/pngs/glippy-panel.png"
       inkscape:export-xdpi="90"
       inkscape:export-ydpi="90" />
    <rect
       style="opacity:0.3;fill:#ffffff;fill-opacity:1;stroke:none"
       id="rect4161"
       width="14"
       height="16"
       x="-35.805386"
       y="-23.1556"
       ry="2.3352091" />
    <path
       style="opacity:0.3;fill:#ffffff;fill-opacity:1;stroke:none"
       d="m 6,46 0,0.40625 1.09375,0.1875 0.25,0.40625 1.6875,0 -0.25,-0.40625 1.28125,-0.1875 L 10.0625,46 6,46 z m 6.90625,0 0,0.40625 1.21875,0.1875 L 13.90625,47 l 0.8125,0 0.25,-0.40625 L 16,46.40625 16,46 12.90625,46 z M 9.3125,47.5 8.78125,47.59375 11.5,52.21875 14.125,47.59375 13.59375,47.5 11.5,51.21875 9.3125,47.5 z m 1.125,7.90625 -1.5,0.1875 0,0.40625 1.5,0 0,-0.59375 z m 1.375,0 0,0.59375 1.53125,0 0,-0.40625 -1.53125,-0.1875 z m -7.8125,1.25 0,1 C 4,58.949956 5.050044,60 6.34375,60 l 9.34375,0 C 16.981206,60 18,58.949956 18,57.65625 l 0,-1 C 18,57.949956 16.981206,59 15.6875,59 L 6.34375,59 C 5.050044,59 4,57.949956 4,56.65625 z"
       id="path4172"
       inkscape:connector-curvature="0" />
    <path
       style="opacity:0.3;fill:#000000;fill-opacity:1;stroke:none"
       d="M 6.34375,43 C 5.050044,43 4,44.050044 4,45.34375 l 0,1 C 4,45.050044 5.050044,44 6.34375,44 l 9.34375,0 C 16.981206,44 18,45.050044 18,46.34375 l 0,-1 C 18,44.050044 16.981206,43 15.6875,43 L 6.34375,43 z M 6,47 l 0,0.40625 1.09375,0.1875 3.34375,5.5 0,-1 L 7.34375,47 6,47 z m 3.03125,0 0.28125,0.5 0.75,-0.09375 0,-0.40625 -1.03125,0 z m 3.875,0 0,0.40625 0.6875,0.09375 0.3125,-0.5 -1,0 z m 1.8125,0 -2.90625,5.0625 0,1 3.15625,-5.46875 L 16,47.40625 16,47 14.71875,47 z m -4.28125,9 0,0.40625 -1.5,0.1875 0,0.40625 4.40625,0 0,-0.40625 -1.53125,-0.1875 0,-0.40625 -1.375,0 z"
       id="path4170"
       inkscape:connector-curvature="0" />
    <path
       style="fill:url(#radialGradient4993);fill-opacity:1;stroke:none"
       d="M 6.34375,23 C 5.050044,23 4,24.050044 4,25.34375 l 0,1 C 4,25.050044 5.050044,24 6.34375,24 l 9.3125,0 C 16.949956,24 18,25.050044 18,26.34375 l 0,-1 C 18,24.050044 16.981206,23 15.6875,23 L 6.34375,23 z M 6,26 l 0,0.40625 1.09375,0.1875 3.34375,5.5 0,3.3125 -1.5,0.1875 0,0.40625 4.40625,0 0,-0.40625 -1.53125,-0.1875 0,-3.34375 3.15625,-5.46875 L 16,26.40625 16,26 l -3.09375,0 0,0.40625 1.21875,0.1875 -2.625,4.625 -2.71875,-4.625 1.28125,-0.1875 L 10.0625,26 6,26 z m -2,10.65625 0,1 C 4,38.949956 5.050044,40 6.34375,40 l 9.3125,0 C 16.949956,40 18,38.949956 18,37.65625 l 0,-1 C 18,37.949956 16.981206,39 15.6875,39 L 6.34375,39 C 5.050044,39 4,37.949956 4,36.65625 z"
       id="path4958"
       inkscape:connector-curvature="0" />
    <path
       inkscape:connector-curvature="0"
       style="fill:url(#radialGradient4998);fill-opacity:1;stroke:none"
       d="M 6.34375,43 C 5.050044,43 4,44.050044 4,45.34375 l 0,11.3125 C 4,57.949956 5.050044,59 6.34375,59 l 9.34375,0 C 16.981206,59 18,57.949956 18,56.65625 l 0,-11.3125 C 18,44.050044 16.981206,43 15.6875,43 L 6.34375,43 z M 6,46 l 4.0625,0 0,0.40625 -1.28125,0.1875 2.71875,4.625 2.625,-4.625 -1.21875,-0.1875 0,-0.40625 3.09375,0 0,0.40625 -1.03125,0.1875 -3.15625,5.46875 0,3.34375 1.53125,0.1875 0,0.40625 -4.40625,0 0,-0.40625 1.5,-0.1875 0,-3.3125 -3.34375,-5.5 L 6,46.40625 6,46 z"
       id="path4996" />
    <path
       id="path3150"
       d="M 24.34375,3 C 23.050044,3 22,4.050044 22,5.34375 l 0,11.3125 C 22,17.949956 23.050044,19 24.34375,19 l 9.34375,0 C 34.981206,19 36,17.949956 36,16.65625 L 36,5.34375 C 36,4.050044 34.981206,3 33.6875,3 L 24.34375,3 z M 24,6 l 4.0625,0 0,0.40625 -1.28125,0.1875 2.71875,4.625 2.625,-4.625 L 30.90625,6.40625 30.90625,6 34,6 l 0,0.40625 -1.03125,0.1875 -3.15625,5.46875 0,3.34375 1.53125,0.1875 0,0.40625 -4.40625,0 0,-0.40625 1.5,-0.1875 0,-3.3125 -3.34375,-5.5 L 24,6.40625 24,6 z"
       style="opacity:0.3;fill:#000000;fill-opacity:1;stroke:none"
       inkscape:connector-curvature="0"
       clip-path="url(#clipPath3946)"
       transform="translate(-18,40)" />
    <path
       id="path3154"
       d="M 26.34375,3 C 25.050044,3 24,4.050044 24,5.34375 l 0,11.3125 C 24,17.949956 25.050044,19 26.34375,19 l 9.34375,0 C 36.981206,19 38,17.949956 38,16.65625 L 38,5.34375 C 38,4.050044 36.981206,3 35.6875,3 L 26.34375,3 z M 26,6 l 4.0625,0 0,0.40625 -1.28125,0.1875 2.71875,4.625 2.625,-4.625 L 32.90625,6.40625 32.90625,6 36,6 l 0,0.40625 -1.03125,0.1875 -3.15625,5.46875 0,3.34375 1.53125,0.1875 0,0.40625 -4.40625,0 0,-0.40625 1.5,-0.1875 0,-3.3125 -3.34375,-5.5 L 26,6.40625 26,6 z"
       style="fill:none;fill-opacity:1;stroke:none"
       inkscape:connector-curvature="0" />
    <rect
       ry="2.3352091"
       y="-26.28808"
       x="-23.700064"
       height="16"
       width="14"
       id="rect3950"
       style="opacity:0.3;fill:url(#radialGradient3958);fill-opacity:1;stroke:none" />
    <text
       transform="scale(0.97730664,1.0232203)"
       sodipodi:linespacing="125%"
       id="text3165"
       y="-23.455357"
       x="-81.096764"
       style="font-size:14.92560673px;font-style:normal;font-variant:normal;font-weight:bold;font-stretch:normal;line-height:125%;letter-spacing:0px;word-spacing:0px;fill:#b50000;fill-opacity:1;stroke:none;font-family:Liberation Serif;-inkscape-font-specification:Liberation Serif Bold"
       xml:space="preserve"><tspan
         y="-23.455357"
         x="-81.096764"
         id="tspan3167"
         sodipodi:role="line">Y</tspan></text>
    <rect
       ry="2.3352091"
       y="-37"
       x="-79"
       height="16"
       width="14"
       id="rect3169"
       style="opacity:0.3;fill:url(#radialGradient3171);fill-opacity:1;stroke:none" />
    <path
       inkscape:connector-curvature="0"
       id="path3962"
       d="M 36.34375,3 C 35.050044,3 34,4.050044 34,5.34375 l 0,11.3125 C 34,17.949956 35.050044,19 36.34375,19 l 9.3125,0 C 46.949956,19 48,17.949956 48,16.65625 L 48,5.34375 C 48,4.050044 46.949956,3 45.65625,3 l -9.3125,0 z M 36,6 l 4.90625,0 0,0.53125 L 39.625,6.75 41.8125,10.9375 43.90625,6.75 42.75,6.53125 42.75,6 46,6 46,6.53125 45,6.75 l -2.78125,5.3125 0,3.1875 1.53125,0.21875 0,0.53125 -5.28125,0 0,-0.53125 1.5,-0.21875 0,-3.15625 L 37.0625,6.75 36,6.53125 36,6 z"
       style="fill:url(#radialGradient3184);fill-opacity:1;stroke:none" />
    <path
       style="opacity:0.3;fill:#000000;fill-opacity:1;stroke:none"
       d="M 36.34375,3.000125 C 35.050044,3.000125 34,4.050169 34,5.343875 l 0,1 c 0,-1.293706 1.050044,-2.34375 2.34375,-2.34375 l 9.3125,0 C 46.949956,4.000125 48,5.050169 48,6.343875 l 0,-1 C 48,4.050169 46.949956,3.000125 45.65625,3.000125 z M 36,7 36,7.53125 37.0625,7.75 l 2.90625,5.34375 0,-1 L 37.1875,7 z m 3.75,0 0.34375,0.65625 0.8125,-0.125 0,-0.53125 z m 3,0 0,0.53125 0.6875,0.125 L 43.78125,7 z m 2.125,0 -2.65625,5.0625 0,1 L 45,7.75 46,7.53125 46,7 z m -4.90625,9 0,0.25 -1.5,0.21875 0,0.53125 5.28125,0 0,-0.53125 -1.53125,-0.21875 0,-0.25 z"
       id="path3957"
       inkscape:connector-curvature="0"
       sodipodi:nodetypes="sscsscsssccccccccccccccccccccccccccccccccc" />
    <path
       style="opacity:0.3;fill:#000000;fill-opacity:1;stroke:none"
       d="M -92.65625,-11 C -93.949956,-11 -95,-9.949956 -95,-8.65625 l 0,11.3125 C -95,3.949956 -93.949956,5 -92.65625,5 l 9.3125,0 C -82.050044,5 -81,3.949956 -81,2.65625 l 0,-11.3125 C -81,-9.949956 -82.050044,-11 -83.34375,-11 l -9.3125,0 z M -93,-8 l 4.90625,0 0,0.53125 -1.28125,0.21875 2.1875,4.1875 2.09375,-4.1875 -1.15625,-0.21875 0,-0.53125 3.25,0 0,0.53125 -1,0.21875 -2.78125,5.3125 0,3.1875 1.53125,0.21875 0,0.53125 -5.28125,0 0,-0.53125 1.5,-0.21875 0,-3.15625 L -91.9375,-7.25 -93,-7.46875 -93,-8 z"
       id="path4037"
       inkscape:connector-curvature="0"
       clip-path="url(#clipPath4058)"
       transform="translate(129,14)" />
    <rect
       ry="2"
       rx="1.75"
       y="-28"
       x="4"
       height="18"
       width="14"
       id="rect3965"
       style="fill:url(#radialGradient3967);fill-opacity:1;fill-rule:nonzero;stroke:none" />
    <rect
       ry="2"
       rx="1.75"
       y="-28"
       x="20"
       height="18"
       width="14"
       id="rect3973"
       style="fill:url(#radialGradient3979);fill-opacity:1;fill-rule:nonzero;stroke:none" />
    <text
       transform="scale(0.93100802,1.0741046)"
       sodipodi:linespacing="125%"
       id="text3975"
       y="-12.103103"
       x="23.630301"
       style="font-size:18.01610374px;font-style:normal;font-variant:normal;font-weight:bold;font-stretch:normal;line-height:125%;letter-spacing:0px;word-spacing:0px;fill:#000000;fill-opacity:1;stroke:none;font-family:Gentium Basic;-inkscape-font-specification:Gentium Basic Bold"
       xml:space="preserve"><tspan
         y="-12.103103"
         x="23.630301"
         id="tspan3977"
         sodipodi:role="line">Y</tspan></text>
    <rect
       ry="2"
       rx="1.9924142"
       y="-46"
       x="-23"
       height="18"
       width="16"
       id="rect3984"
       style="fill:url(#radialGradient3990);fill-opacity:1;fill-rule:nonzero;stroke:none" />
    <text
       transform="scale(1.0198682,0.98051886)"
       sodipodi:linespacing="125%"
       id="text3986"
       y="-31.615911"
       x="-20.590899"
       style="font-size:19.73565292px;font-style:normal;font-variant:normal;font-weight:bold;font-stretch:normal;line-height:125%;letter-spacing:0px;word-spacing:0px;fill:#000000;fill-opacity:1;stroke:none;font-family:Gentium Basic;-inkscape-font-specification:Gentium Basic Bold"
       xml:space="preserve"><tspan
         style="font-weight:bold;-inkscape-font-specification:Gentium Basic Bold"
         y="-31.615911"
         x="-20.590899"
         id="tspan3988"
         sodipodi:role="line">Y</tspan></text>
    <path
       style="fill:#ffffff;fill-opacity:1;fill-rule:nonzero;stroke:none;opacity:0.2"
       d="M 7.84375 6 C 7.6660857 6.016011 7.4971144 6.043336 7.3125 6.0625 C 7.1230874 6.082181 6.9228283 6.099213 6.71875 6.125 C 6.5286614 6.149687 6.3729112 6.167082 6.21875 6.1875 L 6 6.21875 L 6 6.4375 L 6.03125 7 L 6.0625 7.21875 L 6.21875 7.1875 C 6.3729112 7.167082 6.5286614 7.149687 6.71875 7.125 C 6.9228283 7.099213 7.1230874 7.082181 7.3125 7.0625 C 7.4971144 7.043336 7.6660857 7.016011 7.84375 7 C 8.0415818 6.982733 8.225118 7.0000076 8.3125 7 C 8.4608234 7.00001 8.6282155 7.017889 8.8125 7.09375 C 9.0039051 7.1725691 9.1645264 7.2924021 9.28125 7.4375 C 9.4778785 7.6927799 9.664082 7.9883141 9.875 8.3125 C 10.094959 8.6423635 10.319627 8.9867461 10.53125 9.34375 C 10.74624 9.697828 10.977624 10.044611 11.1875 10.4375 C 11.317156 10.671056 11.419881 10.90311 11.53125 11.125 L 13.125 8.28125 C 13.071113 8.2539279 12.885825 8.2013109 12.625 8.15625 L 11.53125 10.125 C 11.419881 9.90311 11.317156 9.671056 11.1875 9.4375 C 10.977624 9.044611 10.74624 8.697828 10.53125 8.34375 C 10.319627 7.9867461 10.094959 7.6423635 9.875 7.3125 C 9.664082 6.9883141 9.4778785 6.6927799 9.28125 6.4375 C 9.1645264 6.2924021 9.0039051 6.172569 8.8125 6.09375 C 8.6282155 6.017889 8.4608234 6.00001 8.3125 6 C 8.225118 6.0000076 8.0415818 5.982733 7.84375 6 z M 12.25 6.0625 L 12.25 6.3125 L 12.25 6.875 L 12.25 7.0625 L 12.5 7.0625 L 15.75 7.0625 L 16 7.0625 L 16 6.875 L 16 6.3125 L 16 6.0625 L 15.75 6.0625 L 12.5 6.0625 L 12.25 6.0625 z M 9.90625 14.625 C 9.87222 14.66236 9.85129 14.69358 9.8125 14.71875 C 9.8051 14.72355 9.78961 14.71425 9.78125 14.71875 C 9.7281 14.73932 9.600066 14.79337 9.4375 14.84375 C 9.2762412 14.89539 9.1222006 14.95851 8.90625 15 L 8.6875 15.03125 L 8.6875 15.21875 L 8.6875 15.75 L 8.6875 16 L 8.90625 16 C 8.9179416 15.997754 8.9261604 16.002368 8.9375 16 C 9.13561 15.958631 9.2849718 15.892594 9.4375 15.84375 C 9.600066 15.793366 9.7281 15.73932 9.78125 15.71875 C 9.78961 15.71425 9.8051 15.72355 9.8125 15.71875 C 9.85129 15.69358 9.87222 15.66236 9.90625 15.625 L 9.90625 14.625 z M 12.34375 14.625 L 12.34375 15.625 C 12.38423 15.66945 12.41652 15.69087 12.46875 15.71875 C 12.513495 15.742633 12.61191 15.78953 12.78125 15.84375 C 12.928975 15.889532 13.126002 15.957454 13.34375 16 C 13.355023 16.002203 13.363604 15.997904 13.375 16 L 13.59375 16 L 13.59375 15.75 L 13.59375 15.21875 L 13.59375 15.03125 L 13.375 15 C 13.143487 14.95741 12.936623 14.8919 12.78125 14.84375 C 12.61191 14.78953 12.5135 14.74263 12.46875 14.71875 C 12.41652 14.69087 12.38423 14.66945 12.34375 14.625 z M 4 17.21875 L 4 18.21875 C 4 19.203639 4.7841772 20 5.75 20 L 16.25 20 C 17.215823 20 18 19.203639 18 18.21875 L 18 17.21875 C 18 18.203639 17.215823 19 16.25 19 L 5.75 19 C 4.7841772 19 4 18.203639 4 17.21875 z "
       id="rect4015" />
    <path
       id="path3213"
       d="M 5.75,3 C 4.784177,3 4,3.7963611 4,4.78125 l 0,12.4375 C 4,18.203639 4.784177,19 5.75,19 l 10.5,0 C 17.215823,19 18,18.203639 18,17.21875 L 18,4.78125 C 18,3.7963611 17.215823,3 16.25,3 L 5.75,3 z m 2.09375,3 c 0.197832,-0.017267 0.381368,7.6e-6 0.46875,0 0.148323,10e-6 0.315715,0.017889 0.5,0.09375 0.191405,0.078819 0.352026,0.1986521 0.46875,0.34375 0.196628,0.2552799 0.382832,0.5508141 0.59375,0.875 0.219959,0.329864 0.444627,0.674246 0.65625,1.03125 0.21499,0.354078 0.446374,0.700861 0.65625,1.09375 0.129656,0.233556 0.232381,0.46561 0.34375,0.6875 L 13.125,7.28125 C 13.05944,7.24801 12.840519,7.171392 12.46875,7.125 L 12.25,7.09375 l 0,-0.21875 0,-0.5625 0,-0.25 0.25,0 3.25,0 0.25,0 0,0.25 0,0.5625 0,0.1875 -0.21875,0.03125 c -0.351284,0.06452 -0.585282,0.133108 -0.71875,0.1875 -0.147376,0.06007 -0.21556,0.128414 -0.25,0.1875 l -2.46875,4.4375 0,2.71875 c 0.04048,0.04445 0.07277,0.06587 0.125,0.09375 0.04475,0.02388 0.14316,0.07078 0.3125,0.125 C 12.936623,14.8919 13.143487,14.95741 13.375,15 l 0.21875,0.03125 0,0.1875 0,0.53125 0,0.25 -0.25,0 -4.40625,0 -0.25,0 0,-0.25 0,-0.53125 0,-0.1875 L 8.90625,15 c 0.215951,-0.04149 0.369991,-0.10461 0.53125,-0.15625 0.162566,-0.05038 0.2906,-0.10443 0.34375,-0.125 0.0084,-0.0045 0.02385,0.0048 0.03125,0 0.03879,-0.02517 0.05972,-0.05639 0.09375,-0.09375 l 0,-2.8125 c -0.0038,-0.0081 0.0038,-0.02315 0,-0.03125 C 9.732819,11.416487 9.527816,11.078228 9.3125,10.6875 9.0797,10.265068 8.830673,9.828401 8.59375,9.4375 8.355728,9.039836 8.162954,8.678489 7.9375,8.34375 7.710894,8.007321 7.489789,7.728723 7.3125,7.5 7.3049,7.49112 7.27211,7.479417 7.1875,7.40625 7.15896,7.381581 7.1152,7.330373 7.0625,7.3125 6.99339,7.289074 6.907645,7.295269 6.78125,7.28125 6.663112,7.263797 6.491477,7.250008 6.28125,7.25 L 6.0625,7.25 6.03125,7 6,6.4375 6,6.21875 6.21875,6.1875 C 6.372911,6.167082 6.528661,6.149687 6.71875,6.125 6.922828,6.099213 7.123087,6.082181 7.3125,6.0625 7.497114,6.043336 7.666086,6.016011 7.84375,6 z"
       style="fill:url(#radialGradient4023);fill-opacity:1;fill-rule:nonzero;stroke:none"
       inkscape:connector-curvature="0" />
    <path
       inkscape:connector-curvature="0"
       style="opacity:0.3;fill:#000000;fill-opacity:1;fill-rule:nonzero;stroke:none;display:inline"
       d="m 5.75,3.0000002 c -0.965823,0 -1.75,0.7963611 -1.75,1.78125 l 0,1 c 0,-0.9848889 0.784177,-1.78125 1.75,-1.78125 l 10.5,0 c 0.965823,0 1.75,0.7963611 1.75,1.78125 l 0,-1 c 0,-0.9848889 -0.784177,-1.78125 -1.75,-1.78125 l -10.5,0 z m 10.25,4.0625 -0.21875,0.03125 c -0.351284,0.06452 -0.585282,0.133108 -0.71875,0.1875 -0.147376,0.06007 -0.21556,0.128414 -0.25,0.1875 l -2.46875,4.4374998 0,1 2.46875,-4.4375 c 0.03444,-0.05909 0.102624,-0.127431 0.25,-0.1875 0.133468,-0.05439 0.367466,-0.122977 0.71875,-0.1875 L 16,8.0625 16,7.875 l 0,-0.5624998 0,-0.25 z m -3.75,0.03125 0,0.21875 0,0.5624998 0,0.21875 0.21875,0.03125 c 0.06619,0.0083 0.09975,0.02149 0.15625,0.03125 l 0.5,-0.8749998 c -0.06556,-0.03324 -0.284481,-0.109858 -0.65625,-0.15625 L 12.25,7.0937502 z M 6,7.2187502 6,7.4375002 6.03125,8 6.0625,8.25 l 0.21875,0 c 0.210227,8e-6 0.381862,0.0138 0.5,0.03125 0.126395,0.01402 0.21214,0.0078 0.28125,0.03125 0.0527,0.01787 0.09646,0.06908 0.125,0.09375 0.08461,0.07317 0.1174,0.08487 0.125,0.09375 0.177289,0.228723 0.398394,0.507321 0.625,0.84375 0.225454,0.334739 0.418228,0.696086 0.65625,1.09375 0.236923,0.390901 0.48595,0.827568 0.71875,1.25 0.215316,0.390728 0.420319,0.728987 0.59375,1.09375 l 0,-0.96875 c -0.0038,-0.0081 0.0038,-0.02315 0,-0.03125 C 9.732819,11.416487 9.527816,11.078228 9.3125,10.6875 9.0797,10.265068 8.830673,9.828401 8.59375,9.4375 8.355728,9.039836 8.162954,8.678489 7.9375,8.34375 7.710894,8.007321 7.489789,7.7287232 7.3125,7.5000002 7.3049,7.4911202 7.27211,7.4794172 7.1875,7.4062502 7.15896,7.3815812 7.1152,7.3303732 7.0625,7.3125002 6.99339,7.2890742 6.907645,7.2952692 6.78125,7.2812502 c -0.118138,-0.017453 -0.289773,-0.031242 -0.5,-0.03125 l -0.21875,0 0,-0.03125 -0.0625,0 z M 8.90625,16 8.6875,16.03125 l 0,0.1875 0,0.53125 0,0.25 0.25,0 4.40625,0 0.25,0 0,-0.25 0,-0.53125 0,-0.1875 L 13.375,16 c -0.0114,-0.0021 -0.01998,0.0022 -0.03125,0 L 8.9375,16 C 8.92616,16.0024 8.917942,15.9978 8.90625,16 z"
       id="path3213-7" />
    <path
       inkscape:connector-curvature="0"
       style="opacity:0.3;fill:#000000;fill-opacity:1;fill-rule:nonzero;stroke:none"
       d="M -12.25,3 C -13.215823,3 -14,3.7963611 -14,4.78125 l 0,12.4375 C -14,18.203639 -13.215823,19 -12.25,19 l 10.5,0 C -0.784177,19 0,18.203639 0,17.21875 L 0,4.78125 C 0,3.7963611 -0.784177,3 -1.75,3 l -10.5,0 z m 2.09375,3 c 0.197832,-0.017267 0.381368,7.6e-6 0.46875,0 0.148323,10e-6 0.315715,0.017889 0.5,0.09375 0.191405,0.078819 0.352026,0.1986521 0.46875,0.34375 0.196628,0.2552799 0.382832,0.5508141 0.59375,0.875 0.219959,0.329864 0.444627,0.674246 0.65625,1.03125 0.21499,0.354078 0.446374,0.700861 0.65625,1.09375 0.129656,0.233556 0.232381,0.46561 0.34375,0.6875 L -4.875,7.28125 C -4.94056,7.24801 -5.159481,7.171392 -5.53125,7.125 L -5.75,7.09375 l 0,-0.21875 0,-0.5625 0,-0.25 0.25,0 3.25,0 0.25,0 0,0.25 0,0.5625 0,0.1875 -0.21875,0.03125 c -0.351284,0.06452 -0.585282,0.133108 -0.71875,0.1875 -0.147376,0.06007 -0.21556,0.128414 -0.25,0.1875 l -2.46875,4.4375 0,2.71875 c 0.04048,0.04445 0.07277,0.06587 0.125,0.09375 0.04475,0.02388 0.14316,0.07078 0.3125,0.125 C -5.063377,14.8919 -4.856513,14.95741 -4.625,15 l 0.21875,0.03125 0,0.1875 0,0.53125 0,0.25 -0.25,0 -4.40625,0 -0.25,0 0,-0.25 0,-0.53125 0,-0.1875 L -9.09375,15 c 0.215951,-0.04149 0.369991,-0.10461 0.53125,-0.15625 0.162566,-0.05038 0.2906,-0.10443 0.34375,-0.125 0.0084,-0.0045 0.02385,0.0048 0.03125,0 0.03879,-0.02517 0.05972,-0.05639 0.09375,-0.09375 l 0,-2.8125 c -0.0038,-0.0081 0.0038,-0.02315 0,-0.03125 C -8.267181,11.416487 -8.472184,11.078228 -8.6875,10.6875 -8.9203,10.265068 -9.169327,9.828401 -9.40625,9.4375 -9.644272,9.039836 -9.837046,8.678489 -10.0625,8.34375 -10.289106,8.007321 -10.510211,7.728723 -10.6875,7.5 c -0.0076,-0.00888 -0.04039,-0.020583 -0.125,-0.09375 -0.02854,-0.024669 -0.0723,-0.075877 -0.125,-0.09375 -0.06911,-0.023426 -0.154855,-0.017231 -0.28125,-0.03125 -0.118138,-0.017453 -0.289773,-0.031242 -0.5,-0.03125 l -0.21875,0 L -11.96875,7 -12,6.4375 -12,6.21875 -11.78125,6.1875 c 0.154161,-0.020418 0.309911,-0.037813 0.5,-0.0625 0.204078,-0.025787 0.404337,-0.042819 0.59375,-0.0625 0.184614,-0.019164 0.353586,-0.046489 0.53125,-0.0625 z"
       id="path4025"
       clip-path="url(#clipPath4035)"
       transform="translate(18,0)" />
    <path
       style="opacity:0.05;fill:#ffffff;fill-opacity:1;fill-rule:nonzero;stroke:none"
       d="M 5.75,2 C 4.234483,2 3,3.2655554 3,4.78125 l 0,12.4375 C 3,18.734445 4.234483,20 5.75,20 l 10.5,0 C 17.765517,20 19,18.734445 19,17.21875 L 19,4.78125 C 19,3.2655554 17.765517,2 16.25,2 z m 0,1 10.5,0 C 17.215823,3 18,3.7963611 18,4.78125 l 0,12.4375 C 18,18.203639 17.215823,19 16.25,19 L 5.75,19 C 4.784177,19 4,18.203639 4,17.21875 L 4,4.78125 C 4,3.7963611 4.784177,3 5.75,3 z M 7.84375,6 C 7.666086,6.016011 7.497114,6.043336 7.3125,6.0625 7.123087,6.082181 6.922828,6.099213 6.71875,6.125 6.528661,6.149687 6.372911,6.167082 6.21875,6.1875 L 6,6.21875 6,6.4375 6.03125,7 6.0625,7.25 l 0.21875,0 c 0.210227,8e-6 0.381862,0.013797 0.5,0.03125 0.126395,0.014019 0.21214,0.00782 0.28125,0.03125 0.0527,0.017873 0.09646,0.069081 0.125,0.09375 0.08461,0.073167 0.1174,0.08487 0.125,0.09375 0.177289,0.228723 0.398394,0.507321 0.625,0.84375 0.225454,0.334739 0.418228,0.696086 0.65625,1.09375 0.236923,0.390901 0.48595,0.827568 0.71875,1.25 0.215316,0.390728 0.420319,0.728987 0.59375,1.09375 0.0038,0.0081 -0.0038,0.02315 0,0.03125 l 0,2.8125 c -0.03403,0.03736 -0.05496,0.06858 -0.09375,0.09375 -0.0074,0.0048 -0.02285,-0.0045 -0.03125,0 C 9.7281,14.73932 9.600066,14.79337 9.4375,14.84375 9.276241,14.89539 9.122201,14.95851 8.90625,15 l -0.21875,0.03125 0,0.1875 0,0.53125 0,0.25 0.25,0 4.40625,0 0.25,0 0,-0.25 0,-0.53125 0,-0.1875 L 13.375,15 c -0.231513,-0.04259 -0.438377,-0.1081 -0.59375,-0.15625 -0.16934,-0.05422 -0.26775,-0.10112 -0.3125,-0.125 -0.05223,-0.02788 -0.08452,-0.0493 -0.125,-0.09375 l 0,-2.71875 2.46875,-4.4375 c 0.03444,-0.059086 0.102624,-0.12743 0.25,-0.1875 0.133468,-0.054392 0.367466,-0.12298 0.71875,-0.1875 L 16,7.0625 16,6.875 l 0,-0.5625 0,-0.25 -0.25,0 -3.25,0 -0.25,0 0,0.25 0,0.5625 0,0.21875 0.21875,0.03125 c 0.371769,0.046392 0.59069,0.12301 0.65625,0.15625 L 11.53125,10.125 C 11.419881,9.90311 11.317156,9.671056 11.1875,9.4375 10.977624,9.044611 10.74624,8.697828 10.53125,8.34375 10.319627,7.986746 10.094959,7.642364 9.875,7.3125 9.664082,6.9883141 9.477878,6.6927799 9.28125,6.4375 9.164526,6.2924021 9.003905,6.172569 8.8125,6.09375 8.628215,6.017889 8.460823,6.00001 8.3125,6 8.225118,6.0000076 8.041582,5.982733 7.84375,6 z M 8.1875,7 c 0.046919,0.0014 0.051901,6.4e-6 0.125,0 0.068013,4.6e-6 0.086681,0.015476 0.125,0.03125 C 8.481058,7.049187 8.495563,7.056985 8.5,7.0625 8.6551903,7.2639818 8.8155469,7.5122092 9.03125,7.84375 l 0,0.03125 c 0.2161002,0.324077 0.4278408,0.6361462 0.625,0.96875 l 0.03125,0 0,0.03125 c 0.2298573,0.3785637 0.443822,0.6920834 0.625,1.03125 l 0,0.03125 c 0.102018,0.18377 0.186333,0.373627 0.3125,0.625 L 11.34375,12 l 0,2.625 0,0.375 -0.4375,0 0,-0.375 0,-2.65625 c -4.75e-4,0.0029 -0.0037,-0.0416 0,-0.125 3.28e-4,-0.0074 -2.03e-4,-0.02301 0,-0.03125 7.68e-4,-0.03828 0.0083,-0.06354 0,-0.125 -9.57e-4,-0.007 0.0019,-0.02221 0,-0.03125 -0.002,-0.01454 0.0055,-0.04108 0,-0.0625 L 10.84375,11.4375 10.8125,11.375 c -0.0012,-0.0034 4.4e-5,-0.03116 0,-0.03125 -0.201706,-0.424232 -0.421433,-0.755593 -0.625,-1.125 C 9.954069,9.7951729 9.6803575,9.3391265 9.4375,8.9375 9.43294,8.92988 9.44204,8.913871 9.4375,8.90625 9.2199275,8.5410565 9.0400322,8.1654725 8.78125,7.78125 8.5637948,7.4584067 8.3508669,7.2099273 8.1875,7 z"
       id="path4040"
       inkscape:connector-curvature="0"
       sodipodi:nodetypes="sssssssssssssssssscccccccccccccccccccccccccccccccccccccccccccccccccccccccccccccccccccccccccccccccccccccccccccc" />
  </g>
</svg>
