<?xml version="1.0" encoding="UTF-8" standalone="no"?>
<!-- Created with Inkscape (http://www.inkscape.org/) -->

<svg
   xmlns:dc="http://purl.org/dc/elements/1.1/"
   xmlns:cc="http://creativecommons.org/ns#"
   xmlns:rdf="http://www.w3.org/1999/02/22-rdf-syntax-ns#"
   xmlns:svg="http://www.w3.org/2000/svg"
   xmlns="http://www.w3.org/2000/svg"
   xmlns:xlink="http://www.w3.org/1999/xlink"
   xmlns:sodipodi="http://sodipodi.sourceforge.net/DTD/sodipodi-0.dtd"
   xmlns:inkscape="http://www.inkscape.org/namespaces/inkscape"
   width="24"
   height="24"
   id="svg3324"
   version="1.1"
   inkscape:version="0.48.3.1 r9886"
   sodipodi:docname="y-ppa-indicator.svg"
   inkscape:export-filename="/home/andrei/Dropbox/work/y-ppa/y-ppa-manager-stable/share/icons/ubuntu-mono-dark/y-ppa-indicator.png"
   inkscape:export-xdpi="150.49181"
   inkscape:export-ydpi="150.49181">
  <defs
     id="defs3326">
    <linearGradient
       inkscape:collect="always"
       xlink:href="#linearGradient3812"
       id="linearGradient3824"
       x1="32.979576"
       y1="35.313705"
       x2="21.948874"
       y2="24.832056"
       gradientUnits="userSpaceOnUse"
       gradientTransform="matrix(2.7322065,0,0,2.8048886,-1.5729654,-83.317435)" />
    <linearGradient
       id="linearGradient3812">
      <stop
         id="stop3822"
         offset="0"
         style="stop-color:#d3d7cf;stop-opacity:1;" />
      <stop
         style="stop-color:#eeeeec;stop-opacity:1;"
         offset="1"
         id="stop3816" />
    </linearGradient>
    <linearGradient
       inkscape:collect="always"
       xlink:href="#linearGradient3826"
       id="linearGradient3832"
       x1="21.948874"
       y1="24.832056"
       x2="32.979576"
       y2="35.313705"
       gradientUnits="userSpaceOnUse"
       gradientTransform="matrix(2.7322065,0,0,2.8048886,-1.5729654,-83.317435)" />
    <linearGradient
       id="linearGradient3826">
      <stop
         style="stop-color:#2e3436;stop-opacity:0.74336284;"
         offset="0"
         id="stop3828" />
      <stop
         style="stop-color:#2e3436;stop-opacity:1;"
         offset="1"
         id="stop3830" />
    </linearGradient>
  </defs>
  <sodipodi:namedview
     id="base"
     pagecolor="#ffffff"
     bordercolor="#666666"
     borderopacity="1.0"
     inkscape:pageopacity="0.0"
     inkscape:pageshadow="2"
     inkscape:zoom="22.4"
     inkscape:cx="17.034969"
     inkscape:cy="12.787389"
     inkscape:document-units="px"
     inkscape:current-layer="layer1"
     showgrid="false"
     inkscape:window-width="1195"
     inkscape:window-height="887"
     inkscape:window-x="411"
     inkscape:window-y="93"
     inkscape:window-maximized="0"
     inkscape:snap-page="false"
     inkscape:object-paths="true" />
  <metadata
     id="metadata3329">
    <rdf:RDF>
      <cc:Work
         rdf:about="">
        <dc:format>image/svg+xml</dc:format>
        <dc:type
           rdf:resource="http://purl.org/dc/dcmitype/StillImage" />
        <dc:title></dc:title>
      </cc:Work>
    </rdf:RDF>
  </metadata>
  <g
     inkscape:label="Layer 1"
     inkscape:groupmode="layer"
     id="layer1"
     transform="translate(0,-1028.3622)">
    <g
       id="g3815"
       inkscape:export-filename="/home/andrei/Dropbox/work/y-ppa/y-ppa-manager-stable/share/icons/ubuntu-mono-dark/rect3909.png"
       inkscape:export-xdpi="134.09"
       inkscape:export-ydpi="134.09"
       transform="matrix(0.92237443,0,0,0.89705882,0.34931507,107.91964)">
      <path
         style="fill:#dfdbd2;fill-opacity:1;fill-rule:nonzero;stroke:none"
         d="M 6.03125,4 C 5.183747,4 4.5,4.75175 4.5,5.71875 l 0,12.5625 C 4.5,19.24835 5.183747,20 6.03125,20 l 11.9375,0 C 18.81625,20 19.5,19.24835 19.5,18.28125 l 0,-12.5625 C 19.5,4.75175 18.81625,4 17.96875,4 L 6.03125,4 z M 5.5,5.125 l 12.6875,0 0,13.21875 -12.6875,0 0,-13.21875 z"
         transform="translate(0,1028.3622)"
         id="rect2871"
         inkscape:connector-curvature="0" />
    </g>
    <text
       xml:space="preserve"
       style="font-size:40px;font-style:normal;font-weight:normal;line-height:125%;letter-spacing:0px;word-spacing:0px;fill:#000000;fill-opacity:1;stroke:none;font-family:Sans"
       x="6.1240497"
       y="9.1002502"
       id="text2996"
       sodipodi:linespacing="125%"
       transform="translate(0,1028.3622)"><tspan
         sodipodi:role="line"
         id="tspan2998" /></text>
    <g
       style="font-size:40px;font-style:normal;font-weight:normal;line-height:125%;letter-spacing:0px;word-spacing:0px;fill:#000000;fill-opacity:1;stroke:none;font-family:Sans"
       id="text3851" />
    <path
       style="fill:#dfdbd2;fill-opacity:1;stroke:#000000;stroke-width:0.02232143;stroke-opacity:0"
       d="m 5.7488712,11.742516 c 1e-7,-3.6339289 0.00258,-5.1172129 0.00573,-3.296187 0.00315,1.821026 0.00315,4.79424 -2e-7,6.607143 -0.00315,1.812903 -0.00573,0.322972 -0.00573,-3.310956 z"
       id="path3879"
       inkscape:connector-curvature="0"
       transform="translate(0,1028.3622)"
       inkscape:export-filename="/home/andrei/Dropbox/work/y-ppa/y-ppa-manager-stable/share/icons/ubuntu-mono-dark/rect3909.png"
       inkscape:export-xdpi="134.09"
       inkscape:export-ydpi="134.09" />
    <path
       style="fill:#dfdbd2;fill-opacity:1;stroke:#000000;stroke-width:0.02232143;stroke-opacity:0"
       d="m 5.7477303,13.628676 c 0,-0.362165 0.00307,-0.510323 0.00682,-0.329241 0.00375,0.181083 0.00375,0.4774 0,0.658482 -0.00375,0.181083 -0.00682,0.03293 -0.00682,-0.329241 z"
       id="path3881"
       inkscape:connector-curvature="0"
       transform="translate(0,1028.3622)"
       inkscape:export-filename="/home/andrei/Dropbox/work/y-ppa/y-ppa-manager-stable/share/icons/ubuntu-mono-dark/rect3909.png"
       inkscape:export-xdpi="134.09"
       inkscape:export-ydpi="134.09" />
    <path
       style="fill:#dfdbd2;fill-opacity:1;stroke:#000000;stroke-width:0.95158952;stroke-opacity:0"
       d="m 4.7910617,1034.606 0,13.0481 12.7110393,0 0,-13.0481 -12.7110393,0 z m 3.454087,1.6935 c 0.1376457,-0.01 0.2559879,0 0.359225,0 0.1179815,0 0.2510717,0.026 0.3592247,0.083 0.1130655,0.052 0.1927544,0.1181 0.2763273,0.2221 0.181889,0.2551 0.3738137,0.5499 0.5802867,0.8883 0.2064676,0.3385 0.4290776,0.7029 0.6355506,1.0828 0.211384,0.3748 0.411278,0.7652 0.60792,1.166 0.201552,0.3956 0.380591,0.7912 0.552654,1.166 l 1.906655,-3.6091 c 0.07373,-0.1354 0.04,-0.2273 -0.0829,-0.3054 -0.11799,-0.079 -0.367559,-0.1422 -0.746083,-0.1943 l 0,-0.4164 2.984332,0 0,0.4164 c -0.334295,0.067 -0.596749,0.1215 -0.773716,0.1943 -0.172068,0.073 -0.290409,0.1753 -0.359226,0.3054 l -2.431676,4.7195 0,3.2204 c -6e-6,0.031 0.01592,0.064 0.05527,0.1111 0.03932,0.042 0.104936,0.087 0.193429,0.1387 0.0934,0.052 0.206824,0.1146 0.359225,0.1666 0.157304,0.052 0.349229,0.092 0.580287,0.1389 l 0,0.4164 -3.7856793,0 0,-0.4164 c 0.4473497,-0.099 0.7398153,-0.2066 0.9118783,-0.3055 0.176971,-0.1041 0.276324,-0.1769 0.276327,-0.2498 l 0,-3.1926 c -0.181894,-0.4217 -0.381788,-0.8572 -0.607919,-1.3048 -0.2261376,-0.4529 -0.4548516,-0.9058 -0.6908173,-1.3325 -0.2359679,-0.4269 -0.4646842,-0.8294 -0.690817,-1.1938 -0.2212204,-0.3644 -0.4358616,-0.6663 -0.6079193,-0.9162 -0.044245,-0.058 -0.084089,-0.1198 -0.1381634,-0.1665 -0.054076,-0.052 -0.132575,-0.075 -0.2210616,-0.1111 -0.083573,-0.042 -0.1988617,-0.09 -0.3315924,-0.111 -0.1327316,-0.022 -0.2909178,-0.027 -0.4973884,-0.027 l -0.027633,-0.4165 c 0.1425631,-0.022 0.2848118,-0.035 0.4421232,-0.056 0.1622265,-0.022 0.3173598,-0.04 0.4697558,-0.056 0.15731,-0.022 0.3044746,-0.045 0.4421231,-0.056 z"
       id="rect3909"
       inkscape:export-xdpi="134.09"
       inkscape:export-ydpi="134.09"
       inkscape:connector-curvature="0" />
    <g
       transform="scale(0.97407519,1.0266148)"
       style="font-size:38.96300888px;font-style:normal;font-weight:normal;line-height:125%;letter-spacing:0px;word-spacing:0px;fill:#000000;fill-opacity:1;stroke:none;font-family:Sans"
       id="text3911" />
    <rect
       style="fill:none"
       id="rect3000"
       width="17.723213"
       height="17.991072"
       x="3.1696429"
       y="1031.6033"
       inkscape:export-xdpi="134.09"
       inkscape:export-ydpi="134.09" />
    <rect
       style="fill:none"
       id="rect3002"
       width="19.362408"
       height="18.794647"
       x="1.7857143"
       y="3.4196429"
       transform="translate(0,1028.3622)"
       ry="0"
       inkscape:export-xdpi="134.09"
       inkscape:export-ydpi="134.09" />
  </g>
</svg>
