<?xml version="1.0" encoding="UTF-8" standalone="no"?>
<!-- Created with Inkscape (http://www.inkscape.org/) -->

<svg
   xmlns:dc="http://purl.org/dc/elements/1.1/"
   xmlns:cc="http://creativecommons.org/ns#"
   xmlns:rdf="http://www.w3.org/1999/02/22-rdf-syntax-ns#"
   xmlns:svg="http://www.w3.org/2000/svg"
   xmlns="http://www.w3.org/2000/svg"
   xmlns:xlink="http://www.w3.org/1999/xlink"
   xmlns:sodipodi="http://sodipodi.sourceforge.net/DTD/sodipodi-0.dtd"
   xmlns:inkscape="http://www.inkscape.org/namespaces/inkscape"
   width="24"
   height="24"
   id="svg3324"
   version="1.1"
   inkscape:version="0.48.2 r9819"
   sodipodi:docname="y-ppa-indicator.svg">
  <defs
     id="defs3326">
    <linearGradient
       inkscape:collect="always"
       xlink:href="#linearGradient3812"
       id="linearGradient3824"
       x1="32.979576"
       y1="35.313705"
       x2="21.948874"
       y2="24.832056"
       gradientUnits="userSpaceOnUse"
       gradientTransform="matrix(2.7322065,0,0,2.8048886,-1.5729654,-83.317435)" />
    <linearGradient
       id="linearGradient3812">
      <stop
         id="stop3822"
         offset="0"
         style="stop-color:#d3d7cf;stop-opacity:1;" />
      <stop
         style="stop-color:#eeeeec;stop-opacity:1;"
         offset="1"
         id="stop3816" />
    </linearGradient>
    <linearGradient
       inkscape:collect="always"
       xlink:href="#linearGradient3826"
       id="linearGradient3832"
       x1="21.948874"
       y1="24.832056"
       x2="32.979576"
       y2="35.313705"
       gradientUnits="userSpaceOnUse"
       gradientTransform="matrix(2.7322065,0,0,2.8048886,-1.5729654,-83.317435)" />
    <linearGradient
       id="linearGradient3826">
      <stop
         style="stop-color:#2e3436;stop-opacity:0.74336284;"
         offset="0"
         id="stop3828" />
      <stop
         style="stop-color:#2e3436;stop-opacity:1;"
         offset="1"
         id="stop3830" />
    </linearGradient>
  </defs>
  <sodipodi:namedview
     id="base"
     pagecolor="#ffffff"
     bordercolor="#666666"
     borderopacity="1.0"
     inkscape:pageopacity="0.0"
     inkscape:pageshadow="2"
     inkscape:zoom="22.4"
     inkscape:cx="17.034969"
     inkscape:cy="14.573103"
     inkscape:document-units="px"
     inkscape:current-layer="layer1"
     showgrid="false"
     inkscape:window-width="1195"
     inkscape:window-height="887"
     inkscape:window-x="403"
     inkscape:window-y="97"
     inkscape:window-maximized="0"
     inkscape:snap-page="false"
     inkscape:object-paths="true" />
  <metadata
     id="metadata3329">
    <rdf:RDF>
      <cc:Work
         rdf:about="">
        <dc:format>image/svg+xml</dc:format>
        <dc:type
           rdf:resource="http://purl.org/dc/dcmitype/StillImage" />
        <dc:title />
      </cc:Work>
    </rdf:RDF>
  </metadata>
  <g
     inkscape:label="Layer 1"
     inkscape:groupmode="layer"
     id="layer1"
     transform="translate(0,-1028.3622)">
    <path
       style="opacity:0.3;fill-opacity:1;fill-rule:nonzero;stroke:none"
       d="M 18.1875 5.03125 L 18.1875 18.34375 L 4.75 18.34375 L 4.75 5.8125 C 4.6065878 6.0742193 4.5 6.3823178 4.5 6.71875 L 4.5 19.28125 C 4.5 20.24825 5.1837473 21 6.03125 21 L 17.96875 21 C 18.81625 21 19.5 20.24825 19.5 19.28125 L 19.5 6.71875 C 19.5 5.8366303 18.930443 5.1479703 18.1875 5.03125 z "
       id="rect2871-9"
       transform="translate(0,1028.3622)" />
    <g
       id="g3815">
      <path
         style="fill:#dfdbd2;fill-opacity:1;fill-rule:nonzero;stroke:none"
         d="M 6.03125 4 C 5.183747 4 4.5 4.75175 4.5 5.71875 L 4.5 18.28125 C 4.5 19.24835 5.183747 20 6.03125 20 L 17.96875 20 C 18.81625 20 19.5 19.24835 19.5 18.28125 L 19.5 5.71875 C 19.5 4.75175 18.81625 4 17.96875 4 L 6.03125 4 z M 5.5 5.125 L 18.1875 5.125 L 18.1875 18.34375 L 5.5 18.34375 L 5.5 5.125 z "
         transform="translate(0,1028.3622)"
         id="rect2871" />
    </g>
    <text
       xml:space="preserve"
       style="font-size:40px;font-style:normal;font-weight:normal;line-height:125%;letter-spacing:0px;word-spacing:0px;fill:#000000;fill-opacity:1;stroke:none;font-family:Sans"
       x="6.1240497"
       y="9.1002502"
       id="text2996"
       sodipodi:linespacing="125%"
       transform="translate(0,1028.3622)"><tspan
         sodipodi:role="line"
         id="tspan2998"></tspan></text>
    <g
       style="font-size:40px;font-style:normal;font-weight:normal;line-height:125%;letter-spacing:0px;word-spacing:0px;fill:#000000;fill-opacity:1;stroke:none;font-family:Sans"
       id="text3851" />
    <path
       style="fill:#dfdbd2;fill-opacity:1;stroke:#000000;stroke-width:0.02232143;stroke-opacity:0"
       d="m 5.7488712,11.742516 c 1e-7,-3.6339289 0.00258,-5.1172129 0.00573,-3.296187 0.00315,1.821026 0.00315,4.79424 -2e-7,6.607143 -0.00315,1.812903 -0.00573,0.322972 -0.00573,-3.310956 z"
       id="path3879"
       inkscape:connector-curvature="0"
       transform="translate(0,1028.3622)" />
    <path
       style="fill:#dfdbd2;fill-opacity:1;stroke:#000000;stroke-width:0.02232143;stroke-opacity:0"
       d="m 5.7477303,13.628676 c 0,-0.362165 0.00307,-0.510323 0.00682,-0.329241 0.00375,0.181083 0.00375,0.4774 0,0.658482 -0.00375,0.181083 -0.00682,0.03293 -0.00682,-0.329241 z"
       id="path3881"
       inkscape:connector-curvature="0"
       transform="translate(0,1028.3622)" />
    <path
       style="fill:#dfdbd2;fill-opacity:1;stroke:#000000;stroke-width:1.07365263;stroke-opacity:0"
       d="M 4.8125 4.65625 L 4.8125 19.34375 L 19.1875 19.34375 L 19.1875 4.65625 L 4.8125 4.65625 z M 8.71875 6.5625 C 8.8744145 6.5512072 9.0082485 6.5625 9.125 6.5625 C 9.2584261 6.5625 9.4089387 6.5915733 9.53125 6.65625 C 9.6591163 6.714767 9.7492365 6.7891133 9.84375 6.90625 C 10.049449 7.1933942 10.266498 7.5253759 10.5 7.90625 C 10.733496 8.2871241 10.985247 8.6973123 11.21875 9.125 C 11.457805 9.5469387 11.683866 9.9864055 11.90625 10.4375 C 12.134186 10.882846 12.336662 11.328164 12.53125 11.75 L 14.6875 7.6875 C 14.770881 7.5351504 14.732731 7.4316282 14.59375 7.34375 C 14.460314 7.2554611 14.178075 7.1836197 13.75 7.125 L 13.75 6.65625 L 17.125 6.65625 L 17.125 7.125 C 16.746944 7.2009695 16.450133 7.2617235 16.25 7.34375 C 16.055408 7.4258792 15.921574 7.5410021 15.84375 7.6875 L 13.09375 13 L 13.09375 16.625 C 13.093744 16.659905 13.111764 16.697232 13.15625 16.75 C 13.200717 16.797224 13.274923 16.84763 13.375 16.90625 C 13.480624 16.964767 13.608899 17.03513 13.78125 17.09375 C 13.959147 17.152267 14.176196 17.197232 14.4375 17.25 L 14.4375 17.71875 L 10.15625 17.71875 L 10.15625 17.25 C 10.662161 17.138612 10.992913 17.017535 11.1875 16.90625 C 11.387637 16.789011 11.499996 16.707027 11.5 16.625 L 11.5 13.03125 C 11.294295 12.556646 11.068234 12.066363 10.8125 11.5625 C 10.556759 11.052683 10.298104 10.542956 10.03125 10.0625 C 9.7643914 9.5820443 9.505735 9.1288826 9.25 8.71875 C 8.9998204 8.3086174 8.7570812 7.9687925 8.5625 7.6875 C 8.5124627 7.6228233 8.4674033 7.5526653 8.40625 7.5 C 8.3450946 7.441483 8.2563201 7.4160646 8.15625 7.375 C 8.0617374 7.3277757 7.931356 7.2733042 7.78125 7.25 C 7.6311429 7.2263879 7.4522491 7.21875 7.21875 7.21875 L 7.1875 6.75 C 7.3487255 6.7263879 7.5095955 6.7111121 7.6875 6.6875 C 7.8709631 6.6638879 8.0464044 6.6424525 8.21875 6.625 C 8.396653 6.6013879 8.5630824 6.5737928 8.71875 6.5625 z "
       transform="translate(0,1028.3622)"
       id="rect3909" />
    <g
       transform="scale(0.97407519,1.0266148)"
       style="font-size:38.96300888px;font-style:normal;font-weight:normal;line-height:125%;letter-spacing:0px;word-spacing:0px;fill:#000000;fill-opacity:1;stroke:none;font-family:Sans"
       id="text3911" />
  </g>
</svg>
